<svg width="26" height="26" viewBox="0 0 26 26" fill="none" xmlns="http://www.w3.org/2000/svg">
<path d="M0.40625 13C0.40625 6.04297 6.04297 0.40625 13 0.40625C19.957 0.40625 25.5938 6.04297 25.5938 13C25.5938 19.957 19.957 25.5938 13 25.5938C6.04297 25.5938 0.40625 19.957 0.40625 13ZM13 23.9688C19.0277 23.9688 23.9688 19.0887 23.9688 13C23.9688 6.97227 19.0887 2.03125 13 2.03125C6.97227 2.03125 2.03125 6.91133 2.03125 13C2.03125 19.0277 6.91133 23.9688 13 23.9688ZM13.6348 19.2715L19.4797 13.4316C19.7184 13.193 19.7184 12.807 19.4797 12.5684L13.6348 6.72852C13.3961 6.48984 13.0102 6.48984 12.7715 6.72852L12.4211 7.07891C12.1824 7.31758 12.1824 7.71367 12.4312 7.94727L16.773 12.1367H7.10938C6.77422 12.1367 6.5 12.4109 6.5 12.7461V13.2539C6.5 13.5891 6.77422 13.8633 7.10938 13.8633H16.773L12.4262 18.0527C12.1824 18.2914 12.1773 18.6824 12.416 18.9211L12.7664 19.2715C13.0102 19.5102 13.3961 19.5102 13.6348 19.2715Z" fill="white"/>
</svg>
