<svg width="12" height="12" viewBox="0 0 12 12" fill="none" xmlns="http://www.w3.org/2000/svg">
<path d="M7.0994 6.00974L11.772 1.33703C12.0761 1.03309 12.0761 0.541661 11.772 0.237721C11.468 -0.0662195 10.9766 -0.0662195 10.6727 0.237721L5.99995 4.91043L1.32737 0.237721C1.02329 -0.0662195 0.532003 -0.0662195 0.228062 0.237721C-0.0760208 0.541661 -0.0760208 1.03309 0.228062 1.33703L4.90064 6.00974L0.228062 10.6824C-0.0760208 10.9864 -0.0760208 11.4778 0.228062 11.7818C0.379534 11.9334 0.578698 12.0095 0.777718 12.0095C0.976739 12.0095 1.17576 11.9334 1.32737 11.7818L5.99995 7.10905L10.6727 11.7818C10.8243 11.9334 11.0233 12.0095 11.2223 12.0095C11.4213 12.0095 11.6204 11.9334 11.772 11.7818C12.0761 11.4778 12.0761 10.9864 11.772 10.6824L7.0994 6.00974Z" fill="#C8D1DA"/>
</svg>
