<svg width="11" height="11" viewBox="0 0 11 11" fill="none" xmlns="http://www.w3.org/2000/svg">
<g clip-path="url(#clip0_5881_2108)">
<path d="M6.50778 5.50901L10.791 1.22569C11.0697 0.947081 11.0697 0.496604 10.791 0.217992C10.5124 -0.0606198 10.0619 -0.0606198 9.78327 0.217992L5.49995 4.50131L1.21676 0.217992C0.938016 -0.0606198 0.487669 -0.0606198 0.209057 0.217992C-0.0696857 0.496604 -0.0696857 0.947081 0.209057 1.22569L4.49225 5.50901L0.209057 9.79232C-0.0696857 10.0709 -0.0696857 10.5214 0.209057 10.8C0.347906 10.939 0.530472 11.0088 0.712908 11.0088C0.895343 11.0088 1.07778 10.939 1.21676 10.8L5.49995 6.51671L9.78327 10.8C9.92225 10.939 10.1047 11.0088 10.2871 11.0088C10.4696 11.0088 10.652 10.939 10.791 10.8C11.0697 10.5214 11.0697 10.0709 10.791 9.79232L6.50778 5.50901Z" fill="#75A149"/>
</g>
<defs>
<clipPath id="clip0_5881_2108">
<rect width="11" height="11" fill="white"/>
</clipPath>
</defs>
</svg>
