<svg width="7" height="15" viewBox="0 0 7 15" fill="none" xmlns="http://www.w3.org/2000/svg">
<path d="M6.92403 6.22283L6.70022 8.10217C6.69056 8.18947 6.6489 8.27009 6.5833 8.32848C6.51769 8.38687 6.43278 8.41889 6.34495 8.41835H4.39101V13.996C4.39149 14.0626 4.36561 14.1267 4.31902 14.1742C4.27243 14.2218 4.20892 14.2491 4.14233 14.25H2.15108C2.11796 14.2495 2.08525 14.2426 2.05482 14.2294C2.0244 14.2163 1.99685 14.1974 1.97376 14.1736C1.95066 14.1499 1.93248 14.1218 1.92023 14.091C1.90799 14.0602 1.90193 14.0273 1.9024 13.9942L1.91306 8.41835H0.433387C0.339166 8.41835 0.248803 8.38093 0.182179 8.3143C0.115554 8.24768 0.078125 8.15731 0.078125 8.06309V6.18375C0.078125 6.08953 0.115554 5.99917 0.182179 5.93254C0.248803 5.86592 0.339166 5.82849 0.433387 5.82849H1.90417V4.00599C1.90417 1.8975 3.15825 0.75 4.99496 0.75H6.49949C6.59372 0.75 6.68408 0.787429 6.7507 0.854054C6.81733 0.920679 6.85476 1.01104 6.85476 1.10526V2.68796C6.85476 2.78218 6.81733 2.87255 6.7507 2.93917C6.68408 3.00579 6.59372 3.04322 6.49949 3.04322H5.57759C4.5793 3.05921 4.39101 3.53704 4.39101 4.25112V5.82316H6.57765C6.62754 5.82401 6.67669 5.83537 6.72189 5.85648C6.7671 5.87759 6.80735 5.90799 6.84003 5.9457C6.87271 5.9834 6.89708 6.02757 6.91155 6.07531C6.92602 6.12306 6.93028 6.17333 6.92403 6.22283Z" fill="white"/>
</svg>
