<svg width="28" height="20" viewBox="0 0 28 20" fill="none" xmlns="http://www.w3.org/2000/svg">
<path fill-rule="evenodd" clip-rule="evenodd" d="M0 1C0 0.447715 0.447715 0 1 0H27C27.5523 0 28 0.447715 28 1C28 1.55228 27.5523 2 27 2H1C0.447715 2 0 1.55228 0 1ZM0 10C0 9.44771 0.447715 9 1 9H27C27.5523 9 28 9.44771 28 10C28 10.5523 27.5523 11 27 11H1C0.447715 11 0 10.5523 0 10ZM1 18C0.447715 18 0 18.4477 0 19C0 19.5523 0.447715 20 1 20H27C27.5523 20 28 19.5523 28 19C28 18.4477 27.5523 18 27 18H1Z" fill="#292E43"/>
</svg>
