<svg width="15" height="15" viewBox="0 0 15 15" fill="none" xmlns="http://www.w3.org/2000/svg">
<path d="M14.606 7.70776C14.6428 6.43087 14.3346 5.16769 13.7139 4.05118C13.0932 2.93468 12.183 2.00615 11.0791 1.36334C9.97523 0.720528 8.71845 0.38721 7.44107 0.398469C6.1637 0.409729 4.91299 0.765151 3.82059 1.42732C2.72819 2.08949 1.8345 3.03392 1.23361 4.16119C0.632722 5.28846 0.346848 6.55688 0.406082 7.83293C0.465316 9.10898 0.867466 10.3455 1.5702 11.4122C2.27294 12.479 3.25027 13.3365 4.39932 13.8947C4.43049 13.9097 4.46501 13.9164 4.49955 13.9142C4.53408 13.9119 4.56744 13.9008 4.5964 13.8818C4.62535 13.8629 4.64892 13.8368 4.66481 13.806C4.6807 13.7753 4.68837 13.741 4.68708 13.7064C4.66045 13.2586 4.69029 12.8092 4.7759 12.3688C4.86649 11.9834 5.2182 10.4877 5.4509 9.50539C5.56474 9.02713 5.57684 8.53028 5.48642 8.04704C5.45204 7.86551 5.43479 7.68114 5.43491 7.49638C5.43491 6.44658 6.04418 5.66322 6.8009 5.66322C7.4457 5.66322 7.75655 6.14638 7.75655 6.72901C7.75655 7.37737 7.34445 8.34546 7.13129 9.2425C7.0891 9.40876 7.08651 9.5826 7.12375 9.75004C7.16099 9.91748 7.23701 10.0738 7.3457 10.2065C7.45438 10.3392 7.5927 10.4446 7.74952 10.5141C7.90634 10.5836 8.07728 10.6153 8.24859 10.6067C9.59149 10.6067 10.6218 9.18566 10.6218 7.15C10.6218 5.34348 9.32326 4.07875 7.46879 4.07875C5.32122 4.07875 4.06004 5.68987 4.06004 7.35605C4.06142 7.97456 4.25784 8.57689 4.62136 9.0773C4.64812 9.1058 4.66708 9.14071 4.67642 9.17867C4.68575 9.21663 4.68514 9.25636 4.67465 9.29401C4.6178 9.53204 4.49701 10.0454 4.46504 10.1502C4.43129 10.2887 4.35491 10.3172 4.2128 10.2514C3.26958 9.80914 2.67984 8.42539 2.67984 7.3223C2.67984 4.94026 4.40998 2.75361 7.66774 2.75361C10.286 2.75361 12.3217 4.62052 12.3217 7.11447C12.3217 9.715 10.6804 11.8093 8.41379 11.8093C7.85151 11.815 7.30782 11.6082 6.89149 11.2302C6.86828 11.2064 6.83916 11.1893 6.80712 11.1806C6.77509 11.1718 6.7413 11.1718 6.70925 11.1805C6.6772 11.1892 6.64805 11.2063 6.62482 11.23C6.60158 11.2537 6.5851 11.2832 6.57708 11.3155C6.45807 11.7666 6.26622 12.4985 6.20405 12.7365C6.06195 13.2104 5.86711 13.6668 5.6232 14.0972C5.60841 14.124 5.60001 14.1539 5.59866 14.1845C5.59732 14.2151 5.60306 14.2456 5.61543 14.2736C5.62781 14.3016 5.64649 14.3264 5.67003 14.346C5.69356 14.3657 5.7213 14.3796 5.75109 14.3867C6.3449 14.5374 6.95566 14.6108 7.56826 14.6052C11.2985 14.5697 14.4959 11.4363 14.5989 7.71131L14.606 7.70776Z" fill="white"/>
</svg>
