<svg width="19" height="18" viewBox="0 0 19 18" fill="none" xmlns="http://www.w3.org/2000/svg">
<g clip-path="url(#clip0_6208_285)">
<path d="M18.9505 6.90423C18.8261 6.53975 18.4849 6.28088 18.0811 6.24641L12.5972 5.77467L10.4287 0.966247C10.2688 0.613852 9.90469 0.385742 9.5001 0.385742C9.09551 0.385742 8.73136 0.613852 8.57147 0.967071L6.40298 5.77467L0.918189 6.24641C0.515193 6.2817 0.174822 6.53975 0.0497197 6.90423C-0.0753828 7.26871 0.0401521 7.66849 0.345008 7.92049L4.4902 11.3645L3.26788 16.4655C3.17844 16.8405 3.3321 17.2282 3.66058 17.4532C3.83715 17.574 4.04372 17.6355 4.25203 17.6355C4.43164 17.6355 4.6098 17.5897 4.76969 17.499L9.5001 14.8206L14.2288 17.499C14.5748 17.6962 15.011 17.6782 15.3387 17.4532C15.6674 17.2275 15.8209 16.8397 15.7314 16.4655L14.5091 11.3645L18.6543 7.92118C18.9592 7.66849 19.0756 7.2694 18.9505 6.90423Z" fill="#FFC107"/>
</g>
<defs>
<clipPath id="clip0_6208_285">
<rect width="19" height="18" fill="white"/>
</clipPath>
</defs>
</svg>
