<svg width="40" height="40" viewBox="0 0 40 40" fill="none" xmlns="http://www.w3.org/2000/svg">
<g clip-path="url(#clip0_6137_229)">
<path d="M20 0C8.9543 0 0 8.9543 0 20C0 31.0457 8.9543 40 20 40C31.0457 40 40 31.0457 40 20C40 8.9543 31.0457 0 20 0ZM24.4263 11.4501C26.8028 11.413 28.952 12.705 29.9709 14.9076C30.9133 17.8194 30.1246 20.7817 28.4625 23.0142C27.3654 24.5281 26.0543 25.8337 24.7138 26.9744C23.4805 28.1224 20.7202 30.3941 19.9886 30.4572C19.342 30.3336 18.6162 29.6013 18.1028 29.2249C15.2184 27.0322 12.1139 24.3669 10.5395 21.4514C9.2195 18.6524 9.2171 15.1892 11.2715 13.0433C13.9354 10.6417 17.9512 11.1118 19.9886 13.6208C20.5358 12.911 21.2088 12.352 22.0073 11.9453C22.8166 11.6223 23.6341 11.4625 24.4263 11.4501Z" fill="#81B3FF"/>
</g>
<defs>
<clipPath id="clip0_6137_229">
<rect width="40" height="40" fill="white"/>
</clipPath>
</defs>
</svg>
