<svg width="15" height="13" viewBox="0 0 15 13" fill="none" xmlns="http://www.w3.org/2000/svg">
<path d="M14.2229 2.41453C13.9038 2.89386 13.5139 3.32208 13.0665 3.68459C13.0101 3.7316 12.9649 3.79059 12.9342 3.85727C12.9034 3.92395 12.888 3.99664 12.8889 4.07006V4.11446C12.8837 5.07712 12.7068 6.03114 12.3666 6.9317C12.0161 7.87691 11.4953 8.74988 10.8301 9.50736C9.9362 10.525 8.78623 11.2849 7.49954 11.7082C6.65407 11.9826 5.77013 12.1199 4.88126 12.115C3.47111 12.1148 2.0861 11.7416 0.866788 11.0332C0.823095 11.0084 0.7887 10.97 0.768824 10.9238C0.748948 10.8776 0.744676 10.8262 0.756657 10.7774C0.768951 10.7294 0.796968 10.6869 0.836242 10.6566C0.875516 10.6263 0.923788 10.6101 0.973367 10.6104H1.31087C2.38251 10.6131 3.43045 10.2951 4.31994 9.69742C3.78985 9.61159 3.29374 9.38108 2.88629 9.0313C2.47883 8.68152 2.17585 8.22604 2.01073 7.71505C2.00228 7.68946 2.00075 7.66209 2.00629 7.63572C2.01183 7.60934 2.02425 7.58491 2.04229 7.56488C2.06033 7.54486 2.08334 7.52996 2.109 7.52171C2.13465 7.51346 2.16203 7.51214 2.18837 7.51788C2.35002 7.5483 2.51414 7.56376 2.67863 7.56407H2.7408C2.22847 7.32869 1.79528 6.94996 1.49361 6.47365C1.19193 5.99733 1.03468 5.44383 1.04087 4.88005C1.04105 4.85367 1.04806 4.82779 1.06122 4.80493C1.07438 4.78206 1.09323 4.76299 1.11595 4.74958C1.13866 4.73616 1.16446 4.72886 1.19084 4.72838C1.21722 4.7279 1.24327 4.73425 1.26646 4.74683C1.47484 4.86318 1.69845 4.94987 1.9308 5.0044C1.47154 4.55002 1.17613 3.95602 1.09094 3.31561C1.00574 2.67519 1.13558 2.02462 1.46008 1.46598C1.47235 1.44452 1.48965 1.42636 1.51049 1.41307C1.53133 1.39977 1.55509 1.39172 1.57972 1.38963C1.60435 1.38753 1.62912 1.39144 1.65191 1.40103C1.67469 1.41062 1.69481 1.42559 1.71054 1.44466C2.35211 2.23903 3.14668 2.89646 4.04712 3.37796C4.94757 3.85946 5.93554 4.15522 6.95244 4.24769H6.96665C6.98159 4.24725 6.99629 4.24378 7.00984 4.23749C7.0234 4.23119 7.03553 4.22221 7.0455 4.21107C7.05547 4.19994 7.06307 4.18689 7.06784 4.17272C7.07261 4.15856 7.07444 4.14357 7.07323 4.12867C7.03357 3.77219 7.05642 3.41152 7.14073 3.06288C7.25534 2.58899 7.4906 2.1528 7.82365 1.79672C8.15669 1.44064 8.5762 1.17678 9.04138 1.03078C9.33984 0.937548 9.65061 0.889646 9.96329 0.888674C10.6723 0.887856 11.3571 1.14624 11.8888 1.61519C11.9577 1.67681 12.0468 1.71096 12.1393 1.71111C12.1693 1.71047 12.1991 1.70629 12.2281 1.69867C12.7277 1.57243 13.2064 1.37438 13.6491 1.11071C13.6756 1.09437 13.7065 1.08661 13.7376 1.08851C13.7687 1.09041 13.7984 1.10187 13.8227 1.12132C13.847 1.14077 13.8647 1.16725 13.8734 1.19715C13.8821 1.22706 13.8813 1.25891 13.8712 1.28834C13.7234 1.75335 13.4599 2.17324 13.1056 2.50867C13.4248 2.43256 13.7364 2.32732 14.0364 2.19427C14.066 2.18284 14.0984 2.18091 14.1292 2.18876C14.1599 2.19661 14.1875 2.21384 14.208 2.23806C14.2285 2.26228 14.2409 2.29229 14.2436 2.32391C14.2463 2.35554 14.239 2.38721 14.2229 2.41453Z" fill="white"/>
</svg>
