<svg width="15" height="15" viewBox="0 0 15 15" fill="none" xmlns="http://www.w3.org/2000/svg">
<path d="M12.2633 2.73768C11.1399 1.60159 9.64739 0.904569 8.05516 0.772456C6.46293 0.640343 4.87592 1.08185 3.58068 2.01725C2.28543 2.95266 1.3673 4.32033 0.992034 5.87334C0.616773 7.42634 0.809116 9.06235 1.53434 10.486L0.823811 13.9356C0.816203 13.97 0.815908 14.0057 0.822946 14.0403C0.829983 14.0748 0.844196 14.1076 0.864666 14.1363C0.893981 14.1798 0.935885 14.2133 0.984771 14.2324C1.03366 14.2514 1.08719 14.2551 1.13822 14.2429L4.51322 13.4418C5.93294 14.148 7.5572 14.3275 9.09687 13.9484C10.6365 13.5692 11.9917 12.6561 12.9212 11.3714C13.8507 10.0867 14.2942 8.51393 14.1728 6.93292C14.0513 5.35191 13.3728 3.86529 12.258 2.73768H12.2633ZM11.2082 11.1521C10.4312 11.9276 9.43078 12.4402 8.34747 12.6176C7.26415 12.7951 6.15245 12.6286 5.16868 12.1415L4.69618 11.907L2.62322 12.3973V12.3706L3.06019 10.2799L2.82927 9.82518C2.32626 8.83874 2.14865 7.71831 2.32194 6.62466C2.49522 5.53102 3.01049 4.52037 3.79381 3.73775C4.77737 2.75521 6.11075 2.20332 7.50098 2.20332C8.89122 2.20332 10.2246 2.75521 11.2082 3.73775L11.2312 3.76972C12.202 4.75538 12.7439 6.08473 12.739 7.46817C12.734 8.8516 12.1825 10.177 11.2046 11.1556L11.2082 11.1521Z" fill="white"/>
<path d="M11.0268 9.63167C10.7728 10.0313 10.3696 10.5198 9.86688 10.6424C8.97872 10.8555 7.62694 10.6424 5.93411 9.07746L5.91279 9.05792C4.44022 7.68305 4.04943 6.53733 4.13647 5.62964C4.18798 5.11273 4.61785 4.64733 4.98022 4.34181C5.03784 4.29323 5.10601 4.2588 5.17931 4.24128C5.2526 4.22375 5.32898 4.22361 5.40234 4.24087C5.4757 4.25813 5.544 4.29231 5.60179 4.34068C5.65958 4.38905 5.70525 4.45027 5.73516 4.51944L6.28049 5.7522C6.31609 5.83155 6.32944 5.9191 6.31911 6.00545C6.30879 6.09181 6.27518 6.17374 6.22187 6.24246L5.94476 6.59772C5.88717 6.67147 5.85286 6.76071 5.84621 6.85404C5.83957 6.94738 5.86089 7.04058 5.90746 7.12174C6.17068 7.50969 6.48563 7.8599 6.84358 8.16266C7.22871 8.53329 7.66548 8.84621 8.14029 9.09167C8.22695 9.12659 8.32205 9.13494 8.41347 9.11564C8.50489 9.09635 8.5885 9.05028 8.65365 8.98331L8.97161 8.66002C9.03211 8.59496 9.10944 8.54791 9.19503 8.52409C9.28062 8.50026 9.37113 8.50058 9.45655 8.52502L10.7533 8.89627C10.8267 8.91718 10.8943 8.95509 10.9504 9.00694C11.0065 9.05878 11.0496 9.12311 11.0762 9.19471C11.1029 9.26631 11.1123 9.34318 11.1037 9.41909C11.0951 9.495 11.0688 9.56782 11.0268 9.63167Z" fill="white"/>
</svg>
