<svg width="60" height="60" viewBox="0 0 60 60" fill="none" xmlns="http://www.w3.org/2000/svg">
<g clip-path="url(#clip0_5862_683)">
<path d="M52.7548 6.52032C52.6544 6.52559 42.529 7.00571 30.8405 0.236604C30.2942 -0.0799198 29.6199 -0.0786308 29.0745 0.239065C17.4639 7.00571 7.34301 6.52641 7.24563 6.52043C6.22996 6.46078 5.38281 7.26809 5.38281 8.2752V28.3594C5.38281 38.8761 8.98211 48.2952 17.5302 54.5623C22.838 58.4534 28.9162 60 29.9985 60C30.9155 60 36.9401 58.6135 42.4692 54.5458C50.9058 48.3389 54.6142 38.9702 54.6142 28.2422V8.2752C54.6142 7.27067 53.7659 6.46313 52.7548 6.52032ZM51.0986 28.2422C51.0986 38.5276 47.5336 46.3955 40.5026 51.6276C35.8816 55.0663 31.1757 56.2088 29.9984 56.4529C28.8206 56.2089 24.114 55.0679 19.4927 51.6411C12.4628 46.4285 8.89844 38.5955 8.89844 28.3594V10.0289C12.4539 9.89485 20.6511 8.97293 29.9622 3.77977C39.3295 8.97317 47.5413 9.89532 51.0985 10.0289V28.2422H51.0986Z" fill="#B999FF"/>
<path d="M21.2031 21.2109V24.7266H19.4453C18.4745 24.7266 17.6875 25.5136 17.6875 26.4844V40.5469C17.6875 44.4239 20.8417 47.5781 24.7187 47.5781H35.2656C39.1427 47.5781 42.2969 44.4239 42.2969 40.5469V26.4844C42.2969 25.5136 41.5098 24.7266 40.5391 24.7266H38.7812V21.2109C38.7812 16.3646 34.8385 12.4219 29.9922 12.4219C25.1459 12.4219 21.2031 16.3645 21.2031 21.2109ZM38.7812 40.5469C38.7812 42.4854 37.2041 44.0625 35.2656 44.0625H24.7187C22.7802 44.0625 21.2031 42.4854 21.2031 40.5469V28.2422H38.7812V40.5469ZM29.9922 15.9375C32.9 15.9375 35.2656 18.3032 35.2656 21.2109V24.7266H24.7187V21.2109C24.7187 18.303 27.0844 15.9375 29.9922 15.9375Z" fill="#B999FF"/>
<path d="M34.0228 31.3351L28.2344 37.1234L25.9617 34.8507C25.2753 34.1643 24.1623 34.1643 23.4758 34.8507C22.7893 35.5371 22.7893 36.6501 23.4758 37.3366L26.9914 40.8522C27.6779 41.5387 28.7908 41.5387 29.4773 40.8522L36.5086 33.821C37.195 33.1346 37.195 32.0216 36.5086 31.3351C35.8222 30.6487 34.7091 30.6487 34.0228 31.3351Z" fill="#B999FF"/>
</g>
<defs>
<clipPath id="clip0_5862_683">
<rect width="60" height="60" fill="white"/>
</clipPath>
</defs>
</svg>
