<svg width="60" height="60" viewBox="0 0 60 60" fill="none" xmlns="http://www.w3.org/2000/svg">
<path d="M44.0625 3.63281H15.9375C7.14961 3.63281 0 10.7297 0 19.4531V30C0 38.134 6.21539 44.8537 14.1797 45.7248V54.6094C14.1797 55.3204 14.6079 55.9614 15.2648 56.2334C15.9217 56.5055 16.6778 56.355 17.1805 55.8523L27.2125 45.8203H44.0625C52.8504 45.8203 60 38.7233 60 30V19.4531C60 10.7297 52.8504 3.63281 44.0625 3.63281ZM56.4844 30C56.4844 36.7848 50.9119 42.3047 44.0625 42.3047H26.4844C26.0181 42.3047 25.571 42.49 25.2415 42.8196L17.6953 50.3655V44.0625C17.6953 43.0917 16.9083 42.3047 15.9375 42.3047C9.08813 42.3047 3.51562 36.7848 3.51562 30V19.4531C3.51562 12.6683 9.08813 7.14844 15.9375 7.14844H44.0625C50.9119 7.14844 56.4844 12.6683 56.4844 19.4531V30Z" fill="#80E6E4"/>
<path d="M24.7266 15.9375C22.6513 15.9375 20.8369 16.8183 19.4531 18.4908C18.0694 16.8183 16.255 15.9375 14.1797 15.9375C10.2369 15.9375 7.14844 19.1273 7.14844 23.1996C7.14844 27.5304 10.6971 30.4104 15.6087 34.3964C16.4771 35.1012 17.375 35.83 18.3278 36.6238C18.6537 36.8954 19.0533 37.0312 19.4531 37.0312C19.853 37.0312 20.2525 36.8954 20.5785 36.6238C21.5312 35.83 22.4291 35.1012 23.2976 34.3964C28.2091 30.4103 31.7578 27.5303 31.7578 23.1995C31.7578 19.1273 28.6693 15.9375 24.7266 15.9375ZM21.082 31.6666C20.5523 32.0965 20.0119 32.5351 19.4531 32.9933C18.8943 32.5351 18.3538 32.0965 17.8242 31.6666C13.5125 28.1674 10.6641 25.8558 10.6641 23.1996C10.6641 21.3834 11.8963 19.4531 14.1797 19.4531C16.7832 19.4531 17.7223 22.4392 17.7666 22.5852C17.9862 23.3333 18.6713 23.8528 19.4516 23.8528C20.2351 23.8528 20.9224 23.3394 21.1392 22.5866C21.1779 22.4586 22.1147 19.4531 24.7266 19.4531C27.01 19.4531 28.2422 21.3834 28.2422 23.1996C28.2422 25.8557 25.3937 28.1674 21.082 31.6666Z" fill="#80E6E4"/>
<path d="M47.5782 28.2421H45.8204V19.4531C45.8204 18.7421 45.3922 18.1011 44.7352 17.8291C44.0787 17.5572 43.3223 17.7074 42.8196 18.2102L39.3039 21.7258C38.6174 22.4123 38.6174 23.5252 39.3039 24.2117C39.9903 24.8982 41.1033 24.8982 41.7898 24.2117L42.3047 23.6969V28.2421H40.5469C39.5762 28.2421 38.7891 29.0291 38.7891 29.9999C38.7891 30.9707 39.5762 31.7577 40.5469 31.7577H47.5782C48.549 31.7577 49.336 30.9707 49.336 29.9999C49.336 29.0291 48.549 28.2421 47.5782 28.2421Z" fill="#80E6E4"/>
</svg>
