<svg width="40" height="40" viewBox="0 0 40 40" fill="none" xmlns="http://www.w3.org/2000/svg">
<g clip-path="url(#clip0_5906_3218)">
<path d="M39.9531 2.98608C39.8665 1.39718 38.6028 0.133662 37.0139 0.0469435C33.8078 -0.128213 27.5341 0.042178 21.535 3.14507C18.4768 4.72694 15.2424 7.4089 12.6613 10.5033C12.6295 10.5414 12.5985 10.5798 12.567 10.618L6.70916 11.0705C5.74494 11.145 4.88611 11.6504 4.35283 12.4569L0.356426 18.5016C-0.0480274 19.1133 -0.112324 19.8789 0.184316 20.5494C0.481035 21.2201 1.09072 21.6874 1.81533 21.7997L6.75057 22.5641C6.73314 22.66 6.71564 22.7558 6.69963 22.8518C6.53533 23.8346 6.86096 24.8451 7.5708 25.5548L14.4452 32.4293C15.0337 33.0178 15.8289 33.3423 16.6438 33.3423C16.8116 33.3423 16.9803 33.3284 17.1483 33.3004C17.2442 33.2844 17.3401 33.2669 17.436 33.2494L18.2004 38.1848C18.3127 38.9094 18.78 39.5191 19.4505 39.8158C19.7295 39.9392 20.0247 40.0001 20.3186 40.0001C20.7313 40.0001 21.1412 39.8799 21.4984 39.6437L27.5431 35.6473C28.3497 35.1139 28.855 34.2551 28.9294 33.2909L29.3819 27.4332C29.4201 27.4016 29.4585 27.3707 29.4967 27.3389C32.5911 24.7577 35.2731 21.5233 36.8549 18.4651C39.958 12.4658 40.1281 6.19194 39.9531 2.98608ZM26.2505 33.6921L20.4684 37.515L19.7234 32.7052C22.1671 31.9867 24.5845 30.8359 26.8876 29.2943L26.5928 33.1103C26.5745 33.3483 26.4496 33.5605 26.2505 33.6921ZM16.1024 30.772L9.22799 23.8976C9.0526 23.7221 8.9715 23.4756 9.01127 23.2382C9.21564 22.0161 9.53322 20.8527 9.92635 19.7568L20.241 30.0715C18.9248 30.543 17.7458 30.8242 16.7618 30.9887C16.524 31.0283 16.2778 30.9474 16.1024 30.772ZM6.88971 13.4073L10.7056 13.1125C9.16392 15.4155 8.01314 17.833 7.29463 20.2767L2.48494 19.5318L6.30791 13.7496C6.43963 13.5504 6.65174 13.4256 6.88971 13.4073ZM27.9956 25.539C26.1024 27.1181 24.2646 28.2603 22.5707 29.0868L10.9128 17.4289C11.9955 15.2176 13.3168 13.3763 14.461 12.0046C16.8497 9.14093 19.8206 6.67054 22.6119 5.22679C28.1177 2.3789 33.9185 2.22554 36.8863 2.3871C37.2792 2.40851 37.5916 2.72093 37.613 3.11382C37.7748 6.08163 37.6211 11.8824 34.7732 17.3883C33.3295 20.1795 30.8592 23.1503 27.9956 25.539Z" fill="#80E5E3"/>
<path d="M27.3983 18.4565C28.8984 18.4563 30.3992 17.8853 31.5413 16.7431C32.648 15.6365 33.2574 14.1651 33.2574 12.6001C33.2574 11.0351 32.648 9.56369 31.5413 8.45705C29.2568 6.17244 25.5396 6.1726 23.2552 8.45705C22.1485 9.56369 21.5391 11.0351 21.5391 12.6001C21.5391 14.1651 22.1486 15.6365 23.2552 16.7431C24.3976 17.8855 25.8976 18.4567 27.3983 18.4565ZM24.9123 10.1142C25.5977 9.42885 26.4979 9.08619 27.3981 9.08619C28.2984 9.08619 29.1987 9.42885 29.884 10.1142C30.548 10.7782 30.9136 11.661 30.9136 12.6C30.9136 13.539 30.548 14.4219 29.884 15.0859C28.5134 16.4566 26.283 16.4565 24.9123 15.0859C24.2483 14.4219 23.8826 13.5391 23.8826 12.6001C23.8826 11.6611 24.2484 10.7782 24.9123 10.1142Z" fill="#80E5E3"/>
<path d="M1.19527 32.964C1.4952 32.964 1.79512 32.8496 2.02387 32.6207L5.84988 28.7947C6.30754 28.337 6.30754 27.5951 5.84988 27.1374C5.39231 26.6798 4.65027 26.6798 4.19262 27.1374L0.36668 30.9635C-0.0909766 31.4211 -0.0909766 32.1631 0.36668 32.6207C0.59543 32.8495 0.895352 32.964 1.19527 32.964Z" fill="#80E5E3"/>
<path d="M9.35629 30.6438C8.89871 30.1861 8.15668 30.1861 7.69902 30.6438L0.343242 37.9996C-0.114414 38.4573 -0.114414 39.1993 0.343242 39.6569C0.57207 39.8857 0.871914 40.0001 1.17184 40.0001C1.47176 40.0001 1.77168 39.8857 2.00043 39.6568L9.35621 32.301C9.81394 31.8434 9.81394 31.1014 9.35629 30.6438Z" fill="#80E5E3"/>
<path d="M11.2083 34.1499L7.3823 37.9759C6.92465 38.4336 6.92465 39.1755 7.3823 39.6332C7.61113 39.862 7.91105 39.9765 8.2109 39.9765C8.51074 39.9765 8.81074 39.8621 9.03949 39.6332L12.8655 35.8072C13.3232 35.3495 13.3232 34.6075 12.8655 34.1499C12.4079 33.6922 11.6659 33.6922 11.2083 34.1499Z" fill="#80E5E3"/>
</g>
<defs>
<clipPath id="clip0_5906_3218">
<rect width="40" height="40" fill="white"/>
</clipPath>
</defs>
</svg>
