<svg width="40" height="40" viewBox="0 0 40 40" fill="none" xmlns="http://www.w3.org/2000/svg">
<path d="M13.0469 17.6562H5.85938C5.21219 17.6562 4.6875 18.1809 4.6875 18.8281C4.6875 19.4753 5.21219 20 5.85938 20H13.0469C13.6941 20 14.2188 19.4753 14.2188 18.8281C14.2188 18.1809 13.6941 17.6562 13.0469 17.6562Z" fill="#B999FF"/>
<path d="M13.0469 22.3438H5.85938C5.21219 22.3438 4.6875 22.8684 4.6875 23.5156C4.6875 24.1628 5.21219 24.6875 5.85938 24.6875H13.0469C13.6941 24.6875 14.2188 24.1628 14.2188 23.5156C14.2188 22.8684 13.6941 22.3438 13.0469 22.3438Z" fill="#B999FF"/>
<path d="M35.3125 17.6622C35.3125 17.2438 35.3125 5.44773 35.3125 4.76562C35.3125 2.82711 33.7354 1.25 31.7969 1.25H3.51562C1.57711 1.25 0 2.82711 0 4.76562C0 5.6043 0 24.9484 0 25.8594C0 27.7979 1.57711 29.375 3.51562 29.375H16.7981C17.8869 34.7175 22.622 38.75 28.2812 38.75C34.743 38.75 40 33.493 40 27.0312C40 23.2055 38.157 19.8023 35.3125 17.6622ZM2.34375 4.76562C2.34375 4.11945 2.86945 3.59375 3.51562 3.59375H31.7969C32.443 3.59375 32.9688 4.11945 32.9688 4.76562V5.9375H2.34375V4.76562ZM2.34375 8.28125H32.9688V10.625H2.34375V8.28125ZM16.5625 27.0312H3.51562C2.86945 27.0312 2.34375 26.5055 2.34375 25.8594V12.9688H32.9688V16.292C31.5325 15.6627 29.9471 15.3125 28.2812 15.3125C21.8195 15.3125 16.5625 20.5695 16.5625 27.0312ZM28.2812 36.4062C23.1119 36.4062 18.9062 32.2006 18.9062 27.0312C18.9062 21.8619 23.1119 17.6562 28.2812 17.6562C33.4506 17.6562 37.6562 21.8619 37.6562 27.0312C37.6562 32.2006 33.4506 36.4062 28.2812 36.4062Z" fill="#B999FF"/>
<path d="M33.7974 23.8589C33.3398 23.4012 32.5978 23.4012 32.1402 23.8589L27.1094 28.8896L24.4224 26.2027C23.9648 25.745 23.2228 25.745 22.7651 26.2027C22.3075 26.6603 22.3075 27.4023 22.7651 27.86L26.2807 31.3756C26.5096 31.6044 26.8095 31.7188 27.1094 31.7188C27.4093 31.7188 27.7092 31.6044 27.938 31.3755L33.7974 25.5161C34.255 25.0585 34.255 24.3165 33.7974 23.8589Z" fill="#B999FF"/>
</svg>
