<svg width="40" height="40" viewBox="0 0 40 40" fill="none" xmlns="http://www.w3.org/2000/svg">
<g clip-path="url(#clip0_5906_3257)">
<path d="M16.1411 19.8745C15.6836 19.4169 14.9415 19.4169 14.4839 19.8745C14.0262 20.3321 14.0262 21.0741 14.4839 21.5318L17.6089 24.6568C17.8376 24.8855 18.1375 25 18.4375 25C18.7374 25 19.0373 24.8855 19.2661 24.6567L25.516 18.4067C25.9737 17.9491 25.9737 17.2071 25.516 16.7494C25.0585 16.2919 24.3164 16.2919 23.8588 16.7494L18.4375 22.1708L16.1411 19.8745Z" fill="#B999FF"/>
<path d="M34.0625 6.24996C29.3376 6.24996 24.8954 4.40996 21.5544 1.06895L20.8287 0.343242C20.3712 -0.114492 19.6291 -0.114336 19.1714 0.343242L18.4456 1.06895C15.1046 4.40996 10.6625 6.24996 5.9375 6.24996C5.29031 6.24996 4.76562 6.77465 4.76562 7.42184V19.1111C4.76562 28.5072 10.7345 36.8761 19.6184 39.9361C19.742 39.9787 19.8709 40 20 40C20.1291 40 20.258 39.9787 20.3816 39.9361C29.2655 36.8761 35.2344 28.5072 35.2344 19.1111V7.42184C35.2344 6.77465 34.7097 6.24996 34.0625 6.24996ZM32.8906 19.1111C32.8906 27.372 27.7273 34.7445 20 37.5843C12.2727 34.7446 7.10938 27.3721 7.10938 19.1111V8.55996C9.34359 8.43067 11.5233 7.93059 13.6038 7.06887C16.0019 6.07551 18.1532 4.6491 20 2.8284C21.8468 4.6491 23.9981 6.07543 26.3962 7.06879C28.4767 7.93051 30.6563 8.43059 32.8906 8.55988V19.1111Z" fill="#B999FF"/>
<path d="M9.45312 19.9219C9.45312 25.7374 14.1845 30.4688 20 30.4688C25.8155 30.4688 30.5469 25.7374 30.5469 19.9219C30.5469 14.1063 25.8156 9.375 20 9.375C14.1844 9.375 9.45312 14.1063 9.45312 19.9219ZM28.2031 19.9219C28.2031 24.4451 24.5232 28.125 20 28.125C15.4768 28.125 11.7969 24.4451 11.7969 19.9219C11.7969 15.3987 15.4768 11.7188 20 11.7188C24.5233 11.7188 28.2031 15.3987 28.2031 19.9219Z" fill="#B999FF"/>
</g>
<defs>
<clipPath id="clip0_5906_3257">
<rect width="40" height="40" fill="white"/>
</clipPath>
</defs>
</svg>
