<svg width="40" height="40" viewBox="0 0 40 40" fill="none" xmlns="http://www.w3.org/2000/svg">
<g clip-path="url(#clip0_5906_3224)">
<path d="M38.8281 28.2031H37.1066C37.4073 27.6166 37.5781 26.9531 37.5781 26.25V7.5C37.5781 5.1307 35.6505 3.20312 33.2812 3.20312H6.71875C4.34945 3.20312 2.42188 5.1307 2.42188 7.5V26.25C2.42188 26.9531 2.59273 27.6166 2.89336 28.2031H1.17188C0.524687 28.2031 0 28.7278 0 29.375V32.5C0 34.8693 1.92758 36.7969 4.29688 36.7969H35.7031C38.0724 36.7969 40 34.8693 40 32.5V29.375C40 28.7278 39.4753 28.2031 38.8281 28.2031ZM4.76562 26.25V7.5C4.76562 6.42305 5.6418 5.54688 6.71875 5.54688H33.2812C34.3582 5.54688 35.2344 6.42305 35.2344 7.5V26.25C35.2344 27.327 34.3582 28.2031 33.2812 28.2031H6.71875C5.6418 28.2031 4.76562 27.327 4.76562 26.25ZM37.6562 32.5C37.6562 33.577 36.7801 34.4531 35.7031 34.4531H4.29688C3.21992 34.4531 2.34375 33.577 2.34375 32.5V30.5469H37.6562V32.5Z" fill="#81B3FF"/>
<path d="M15.3125 21.1719H24.6875C25.3347 21.1719 25.8594 20.6472 25.8594 20V19.2188C25.8594 17.1079 24.737 15.2546 23.058 14.223C23.5883 13.5561 23.9062 12.7131 23.9062 11.7969C23.9062 9.64297 22.1539 7.89062 20 7.89062C17.8461 7.89062 16.0938 9.64297 16.0938 11.7969C16.0938 12.7131 16.4117 13.5561 16.942 14.223C15.263 15.2546 14.1406 17.1079 14.1406 19.2188V20C14.1406 20.6472 14.6653 21.1719 15.3125 21.1719ZM18.4375 11.7969C18.4375 10.9353 19.1384 10.2344 20 10.2344C20.8616 10.2344 21.5625 10.9353 21.5625 11.7969C21.5625 12.6584 20.8616 13.3594 20 13.3594C19.1384 13.3594 18.4375 12.6584 18.4375 11.7969ZM20 15.7031C21.8065 15.7031 23.2991 17.0728 23.4941 18.8281H16.5059C16.7009 17.0728 18.1935 15.7031 20 15.7031Z" fill="#81B3FF"/>
<path d="M27.8125 23.5156H12.1875C11.5403 23.5156 11.0156 24.0403 11.0156 24.6875C11.0156 25.3347 11.5403 25.8594 12.1875 25.8594H27.8125C28.4597 25.8594 28.9844 25.3347 28.9844 24.6875C28.9844 24.0403 28.4597 23.5156 27.8125 23.5156Z" fill="#81B3FF"/>
</g>
<defs>
<clipPath id="clip0_5906_3224">
<rect width="40" height="40" fill="white"/>
</clipPath>
</defs>
</svg>
