<svg width="40" height="40" viewBox="0 0 40 40" fill="none" xmlns="http://www.w3.org/2000/svg">
<g clip-path="url(#clip0_5906_3266)">
<path d="M15.2341 4.6875C9.41867 4.6875 4.6875 9.41875 4.6875 15.2341C4.6875 21.0495 9.41875 25.7808 15.2341 25.7808C21.0495 25.7808 25.7808 21.0495 25.7808 15.2341C25.7808 9.41875 21.0496 4.6875 15.2341 4.6875ZM15.2341 23.4371C10.711 23.4371 7.03117 19.7573 7.03117 15.2341C7.03117 10.711 10.711 7.03117 15.2341 7.03117C19.7573 7.03117 23.4371 10.711 23.4371 15.2341C23.4371 19.7573 19.7573 23.4371 15.2341 23.4371Z" fill="#81B3FF"/>
<path d="M38.9693 33.998L30.8684 25.8971C30.6487 25.6773 30.3506 25.5538 30.0398 25.5538C29.7291 25.5538 29.4309 25.6773 29.2113 25.8971L28.3828 26.7255L26.7977 25.1404C29.0843 22.475 30.468 19.0133 30.468 15.2341C30.4681 6.83398 23.6341 0 15.2341 0C6.83398 0 0 6.83398 0 15.2341C0 23.6341 6.83398 30.4681 15.2341 30.4681C19.0132 30.4681 22.4749 29.0844 25.1403 26.7976L26.7255 28.3827L25.897 29.2112C25.4394 29.6688 25.4394 30.4108 25.897 30.8684L33.9979 38.9694C35.3721 40.3436 37.5949 40.3438 38.9693 38.9694C40.3435 37.5952 40.3437 35.3722 38.9693 33.998ZM15.2341 28.1245C8.12633 28.1245 2.34367 22.3418 2.34367 15.2341C2.34367 8.12633 8.12633 2.34367 15.2341 2.34367C22.3418 2.34367 28.1245 8.12633 28.1245 15.2341C28.1245 22.3418 22.3418 28.1245 15.2341 28.1245ZM37.3121 37.3121C36.8538 37.7703 36.1135 37.7704 35.6552 37.3121L28.3829 30.0398L30.0398 28.383L37.3121 35.6552C37.7689 36.112 37.7689 36.8553 37.3121 37.3121Z" fill="#81B3FF"/>
</g>
<defs>
<clipPath id="clip0_5906_3266">
<rect width="40" height="40" fill="white"/>
</clipPath>
</defs>
</svg>
