<svg width="40" height="40" viewBox="0 0 40 40" fill="none" xmlns="http://www.w3.org/2000/svg">
<path d="M37.5876 20.8847C36.9452 20.8078 36.362 21.2668 36.2851 21.9095C35.322 29.9788 28.4496 36.0643 20.2994 36.0643C12.9688 36.0643 6.67346 31.1415 4.77988 24.2807L6.18183 25.0506C6.74915 25.3622 7.46172 25.1547 7.773 24.5877C8.08457 24.0204 7.87736 23.3078 7.31005 22.9962L3.71392 21.0212C3.14721 20.7099 2.43525 20.9165 2.12336 21.4829L0.14555 25.0744C-0.16664 25.6414 0.0399612 26.354 0.606664 26.6662C1.19198 26.94 1.86092 26.8054 2.19844 26.2051L2.6568 25.3729C4.97885 32.99 12.0698 38.408 20.2994 38.408C29.6358 38.408 37.5086 31.4345 38.6121 22.1872C38.689 21.5445 38.23 20.9613 37.5876 20.8847Z" fill="#80E5E3"/>
<path d="M39.291 11.5699C38.6971 11.3138 38.0074 11.5876 37.7511 12.182L37.3818 13.0377C36.228 10.2164 34.3762 7.69174 31.991 5.73712C28.707 3.0452 24.5549 1.56299 20.2993 1.56299C16.0436 1.56299 11.8915 3.0452 8.60724 5.73712C5.36846 8.3915 3.11141 12.0963 2.25205 16.1685C2.11839 16.8017 2.52366 17.4233 3.15689 17.557C3.7892 17.6907 4.41175 17.2857 4.54511 16.6525C5.29491 13.1 7.2651 9.8673 10.0928 7.54953C12.959 5.20032 16.5838 3.9067 20.2993 3.9067C24.0144 3.9067 27.6392 5.20032 30.5054 7.54953C32.7084 9.35492 34.3905 11.716 35.3811 14.3509L33.8974 13.7128C33.3029 13.4573 32.6135 13.7317 32.3578 14.3262C32.1021 14.9206 32.3767 15.6097 32.9712 15.8654L36.7407 17.4868C37.3821 17.752 38.0068 17.481 38.2799 16.8743L39.9031 13.1097C40.1595 12.5156 39.8854 11.8262 39.291 11.5699Z" fill="#80E5E3"/>
<path d="M27.5248 11.3647C27.8611 10.6863 27.9127 9.91726 27.6707 9.1998C27.4287 8.48234 26.9218 7.90221 26.2434 7.56591C24.8426 6.87195 23.1389 7.4469 22.4446 8.84733C22.2929 9.15372 22.1996 9.47842 22.1648 9.80862C21.2596 9.72531 20.3395 9.80953 19.4478 10.0662C17.673 10.5764 16.1633 11.7245 15.1971 13.2982L12.0328 18.452C11.6101 18.3763 11.1731 18.4077 10.755 18.5487C10.1011 18.7694 9.57219 19.2314 9.2661 19.8494L9.05737 20.2702C8.42505 21.5464 8.94872 23.0994 10.2253 23.7317L17.0751 27.1259C16.4007 28.529 16.7028 30.1059 18.4533 30.9866C19.988 31.6171 21.6963 30.9994 22.3598 29.7445L23.0839 30.1031C23.4459 30.2826 23.8359 30.3732 24.2283 30.3732C24.5064 30.3732 24.7856 30.3277 25.0566 30.2362C25.7103 30.0158 26.2391 29.5538 26.5455 28.9355L26.7539 28.5147C27.0603 27.8964 27.1076 27.196 26.887 26.5421C26.746 26.124 26.5061 25.7572 26.19 25.4666L28.3738 19.8274C29.0406 18.105 29.0394 16.2084 28.3704 14.4872C28.0344 13.6223 27.544 12.8393 26.9297 12.1694C27.1711 11.9418 27.3731 11.6711 27.5248 11.3647ZM24.9827 9.61056C25.2546 9.61056 25.475 9.83089 25.475 10.1025C25.475 10.3744 25.2546 10.5944 24.9827 10.5944C24.7111 10.5944 24.4908 10.3741 24.4908 10.1025C24.4908 9.83089 24.7111 9.61056 24.9827 9.61056ZM19.9581 28.9178C19.8043 28.97 19.6395 28.9587 19.4939 28.8867C19.3483 28.8147 19.2397 28.6902 19.1878 28.5364C19.1472 28.4161 19.1457 28.2889 19.1814 28.1699L20.2538 28.7012C20.1802 28.8016 20.0783 28.8775 19.9581 28.9178ZM26.1882 18.9811L23.8093 25.1236C23.4746 25.8826 23.7947 26.781 24.5451 27.1533H24.5454C24.6678 27.2186 24.7126 27.3529 24.6541 27.4744L24.4453 27.8952C24.3754 28.0173 24.2509 28.0572 24.1246 28.0032L11.2659 21.6319C11.1475 21.5733 11.0987 21.4292 11.1572 21.3111L11.366 20.8903C11.4224 20.7862 11.532 20.7124 11.687 20.782C12.0609 20.9672 12.4844 20.9956 12.8799 20.8625C13.2532 20.7365 13.5593 20.4805 13.7482 20.1377L17.1941 14.5247C17.8536 13.4505 18.8842 12.6669 20.0957 12.3183C21.3069 11.9698 22.5963 12.0861 23.7254 12.6458C23.7257 12.6458 23.7257 12.6458 23.726 12.6461C23.7263 12.6461 23.7263 12.6461 23.7266 12.6464C24.8561 13.2061 25.7295 14.1613 26.186 15.3362C26.6425 16.5111 26.6432 17.8056 26.1882 18.9811Z" fill="#80E5E3"/>
</svg>
