<svg width="51" height="51" viewBox="0 0 51 51" fill="none" xmlns="http://www.w3.org/2000/svg">
<path d="M25.0965 50.8404C38.9569 50.8404 50.1929 39.6043 50.1929 25.7439C50.1929 11.8835 38.9569 0.647461 25.0965 0.647461C11.2361 0.647461 0 11.8835 0 25.7439C0 39.6043 11.2361 50.8404 25.0965 50.8404Z" fill="#5D93E5"/>
<path d="M25.0965 48.7211C38.9569 48.7211 50.1929 37.9595 50.1929 24.6843C50.1929 11.4091 38.9569 0.647461 25.0965 0.647461C11.2361 0.647461 0 11.4091 0 24.6843C0 37.9595 11.2361 48.7211 25.0965 48.7211Z" fill="#81B3FF"/>
<path d="M24.6292 11.6794C20.2641 11.6794 16.7033 15.2525 16.7033 19.6175C16.7033 22.2859 18.0385 24.65 20.0705 26.0881C15.331 27.9872 11.9688 32.6212 11.9688 38.0283C11.976 38.355 12.1109 38.6659 12.3446 38.8945C12.5782 39.123 12.8921 39.2511 13.2189 39.2511C13.5458 39.2511 13.8596 39.123 14.0933 38.8945C14.3269 38.6659 14.4618 38.355 14.4691 38.0283C14.4691 32.2899 19.0959 27.6655 24.8343 27.6655C26.8374 27.6655 28.6968 28.2365 30.2794 29.2161C30.4196 29.3031 30.5755 29.3615 30.7383 29.3882C30.9011 29.4149 31.0675 29.4092 31.2281 29.3715C31.3887 29.3338 31.5402 29.2647 31.6741 29.1683C31.808 29.0719 31.9215 28.9502 32.0082 28.8099C32.0949 28.6695 32.1531 28.5134 32.1794 28.3506C32.2057 28.1877 32.1996 28.0212 32.1615 27.8607C32.1234 27.7002 32.054 27.5488 31.9573 27.4152C31.8606 27.2815 31.7385 27.1683 31.598 27.0819C30.8848 26.6406 30.1107 26.2951 29.3125 25.9979C31.2789 24.5524 32.5673 22.2326 32.5673 19.6175C32.5673 15.2525 28.9943 11.6794 24.6292 11.6794ZM24.6292 14.1821C27.643 14.1821 30.067 16.6037 30.067 19.6175C30.067 22.6313 27.643 25.0431 24.6292 25.0431C21.6154 25.0431 19.2037 22.6313 19.2037 19.6175C19.2037 16.6037 21.6154 14.1821 24.6292 14.1821ZM37.2824 29.1868C37.0792 29.1926 36.8805 29.2479 36.7035 29.3479C36.5265 29.4478 36.3765 29.5895 36.2666 29.7605L31.9569 36.219L29.2539 34.4096C29.1168 34.3175 28.9629 34.2533 28.801 34.2207C28.6391 34.1882 28.4723 34.1879 28.3103 34.2199C28.1483 34.2519 27.9941 34.3156 27.8568 34.4073C27.7194 34.499 27.6014 34.6169 27.5097 34.7543C27.418 34.8916 27.3543 35.0456 27.3222 35.2076C27.2902 35.3696 27.2904 35.5365 27.3229 35.6985C27.3554 35.8604 27.4195 36.0143 27.5117 36.1514C27.6038 36.2885 27.722 36.406 27.8597 36.4973L31.6175 38.9977C31.7544 39.0885 31.9079 39.1515 32.0691 39.183C32.2303 39.2145 32.3962 39.2138 32.5572 39.1811C32.7182 39.1485 32.8712 39.0845 33.0074 38.9927C33.1436 38.9009 33.2604 38.7831 33.3511 38.6462L38.3543 31.1427C38.4848 30.9521 38.5599 30.729 38.5713 30.4983C38.5827 30.2675 38.53 30.0381 38.419 29.8355C38.3079 29.6329 38.1429 29.4651 37.9423 29.3506C37.7417 29.2361 37.5133 29.1794 37.2824 29.1868Z" fill="white"/>
</svg>
