<svg width="243" height="51" viewBox="0 0 243 51" fill="none" xmlns="http://www.w3.org/2000/svg">
<path d="M67.8064 25.4541C67.4048 25.7218 67.2264 26.3018 67.2264 26.8372C67.2264 27.5065 67.4495 28.1757 67.6725 28.3988C67.6725 28.3988 69.9033 28.3542 72.6249 28.2203C72.5357 31.4773 72.4464 34.1988 72.4464 36.4296C72.4464 38.125 72.4911 39.5974 72.6249 40.9358C72.8926 44.2374 76.3726 45.0405 77.7557 45.0405H78.068C77.9342 42.8543 77.845 39.4189 77.845 34.7788C77.845 32.7711 77.845 30.4957 77.8896 27.9526L80.5219 27.8188C82.1727 27.7295 83.645 26.8818 83.645 25.4541C83.645 25.231 83.6004 24.9633 83.5112 24.6956C82.8419 24.7403 82.1281 24.7849 81.1019 24.7849C80.3881 24.7849 79.585 24.7403 78.6927 24.7403H77.9788C77.9788 23.4018 78.0234 21.8848 78.0234 20.4125C78.0234 18.0479 77.9788 15.6832 77.8896 14.2109C78.2019 14.2109 78.5588 14.2555 78.8711 14.2555C80.3435 14.3447 81.8604 14.434 83.1543 14.434C83.8235 14.434 84.4927 14.434 85.1174 14.3447C86.6789 14.1217 87.2143 13.0955 87.2143 12.2478C87.2143 12.0693 87.2143 11.9355 87.1697 11.8016C82.5296 11.757 78.3804 11.0432 74.4988 10.7309C71.5987 10.5078 69.2787 10.2401 67.3156 10.2401C64.1925 10.2401 62.0509 10.7755 60.5786 12.4709C59.8201 13.274 59.5078 14.434 59.5078 15.5494C59.5078 17.2448 60.1324 18.8063 61.5601 19.074C61.7386 18.1817 62.4078 17.1556 63.8356 16.2632C65.6202 15.1478 68.4756 14.2555 73.0711 14.0771V14.3001C73.0711 18.0479 72.8926 21.3941 72.7141 24.6956C70.4833 24.7403 68.6541 24.8741 67.8064 25.4541Z" fill="white"/>
<path d="M107.297 31.745C107.967 30.9419 108.234 30.0049 108.234 29.4249C108.234 28.3988 107.52 27.6849 106.94 27.328C106.539 28.488 105.691 29.3803 104.62 30.0049C103.728 30.5403 102.657 30.9419 101.542 31.165C101.453 29.1126 101.096 27.0603 100.56 25.3649C99.8465 23.2679 98.3742 21.6618 96.1434 20.8141C95.2065 20.4571 94.1803 20.2341 93.1988 20.2341C92.3957 20.2341 91.6372 20.3679 90.9234 20.7248C90.0757 20.7694 89.1833 21.0818 88.291 21.7956C86.0602 23.4464 84.7664 27.4172 84.7664 31.5665C84.7664 34.2435 85.3018 37.0989 86.5956 39.3743C87.9341 41.8282 91.4141 43.4343 94.4034 43.4343C95.5634 43.4343 96.6788 43.1666 97.5265 42.6313C99.9358 41.1143 100.962 37.9466 101.363 34.5112C103.907 34.1542 105.959 33.3065 107.297 31.745ZM93.6449 29.8265C92.4403 28.6218 91.6818 27.1941 91.6818 25.8557C91.6818 25.1418 91.9049 24.4726 92.3957 23.8926C92.7526 23.5356 93.1542 23.3572 93.6003 23.3572C94.8496 23.3572 96.4111 24.6064 97.125 26.3911C97.4819 27.328 97.6604 28.6218 97.6604 29.8711C97.6604 30.4065 97.6158 30.9419 97.5711 31.388C96.2773 31.3434 94.6711 30.808 93.6449 29.8265ZM90.5218 31.968C91.5034 32.7265 92.5295 33.3065 93.6449 33.7081C94.7603 34.1096 95.9203 34.3773 97.0804 34.5558C96.768 35.9835 96.3665 37.3666 95.8757 38.4374C95.385 39.5081 94.8496 40.222 94.3142 40.4451C94.1357 40.5343 93.9572 40.5789 93.7788 40.5789C92.7526 40.5789 91.8157 39.2404 91.2357 37.2327C90.7895 35.7604 90.5218 33.9311 90.5218 31.968Z" fill="white"/>
<path d="M103.848 30.2726C104.339 35.4035 104.785 39.4189 106.123 41.2482C107.283 42.8097 108.89 43.5236 110.585 43.5236C111.299 43.5236 112.013 43.3897 112.727 43.122C113.753 42.7205 115.359 41.2482 116.207 39.8205C116.519 39.2851 116.742 38.7943 116.742 38.0358C116.742 36.7866 116.028 35.9835 115.537 35.8942C115.359 36.8758 114.734 38.2589 113.887 39.2851C113.262 40.0435 112.548 40.6235 111.834 40.6235C111.611 40.6235 111.388 40.5789 111.165 40.4451C109.603 39.5081 109.336 36.0281 109.336 31.7896V30.6742C111.076 25.8557 112.593 21.3495 112.593 16.8879C112.593 14.5232 111.834 11.6678 110.228 9.92777C109.336 8.99083 108.176 8.36621 106.748 8.36621C105.543 8.36621 104.517 9.12468 104.116 10.8201C103.625 12.694 103.446 16.3079 103.446 20.0556C103.446 23.5802 103.58 27.4172 103.848 30.2726ZM108.22 26.3464C107.908 24.2049 107.73 21.6171 107.73 18.6279C107.73 16.3525 107.863 14.6124 108.711 14.6124C109.603 14.6124 109.916 15.9509 109.916 17.5571C109.916 20.7248 108.22 26.3464 108.22 26.3464Z" fill="white"/>
<path d="M114.523 30.2726C115.014 35.4035 115.46 39.4189 116.798 41.2482C117.958 42.8097 119.564 43.5236 121.26 43.5236C121.974 43.5236 122.687 43.3897 123.401 43.122C124.427 42.7205 126.034 41.2482 126.881 39.8205C127.194 39.2851 127.417 38.7943 127.417 38.0358C127.417 36.7866 126.703 35.9835 126.212 35.8942C126.034 36.8758 125.409 38.2589 124.561 39.2851C123.937 40.0435 123.223 40.6235 122.509 40.6235C122.286 40.6235 122.063 40.5789 121.84 40.4451C120.278 39.5081 120.011 36.0281 120.011 31.7896V30.6742C121.751 25.8557 123.267 21.3495 123.267 16.8879C123.267 14.5232 122.509 11.6678 120.903 9.92777C120.011 8.99083 118.85 8.36621 117.423 8.36621C116.218 8.36621 115.192 9.12468 114.79 10.8201C114.3 12.694 114.121 16.3079 114.121 20.0556C114.121 23.5802 114.255 27.4172 114.523 30.2726ZM118.895 26.3464C118.583 24.2049 118.404 21.6171 118.404 18.6279C118.404 16.3525 118.538 14.6124 119.386 14.6124C120.278 14.6124 120.591 15.9509 120.591 17.5571C120.591 20.7248 118.895 26.3464 118.895 26.3464Z" fill="white"/>
<path d="M147.818 31.745C148.487 30.9419 148.755 30.0049 148.755 29.4249C148.755 28.3988 148.041 27.6849 147.461 27.328C147.059 28.488 146.212 29.3803 145.141 30.0049C144.248 30.5403 143.178 30.9419 142.062 31.165C141.973 29.1126 141.616 27.0603 141.081 25.3649C140.367 23.2679 138.895 21.6618 136.664 20.8141C135.727 20.4571 134.701 20.2341 133.719 20.2341C132.916 20.2341 132.158 20.3679 131.444 20.7248C130.596 20.7694 129.704 21.0818 128.811 21.7956C126.581 23.4464 125.287 27.4172 125.287 31.5665C125.287 34.2435 125.822 37.0989 127.116 39.3743C128.454 41.8282 131.934 43.4343 134.924 43.4343C136.084 43.4343 137.199 43.1666 138.047 42.6313C140.456 41.1143 141.482 37.9466 141.884 34.5112C144.427 34.1542 146.479 33.3065 147.818 31.745ZM134.165 29.8265C132.961 28.6218 132.202 27.1941 132.202 25.8557C132.202 25.1418 132.425 24.4726 132.916 23.8926C133.273 23.5356 133.674 23.3572 134.121 23.3572C135.37 23.3572 136.931 24.6064 137.645 26.3911C138.002 27.328 138.181 28.6218 138.181 29.8711C138.181 30.4065 138.136 30.9419 138.091 31.388C136.798 31.3434 135.191 30.808 134.165 29.8265ZM131.042 31.968C132.024 32.7265 133.05 33.3065 134.165 33.7081C135.281 34.1096 136.441 34.3773 137.601 34.5558C137.288 35.9835 136.887 37.3666 136.396 38.4374C135.905 39.5081 135.37 40.222 134.835 40.4451C134.656 40.5343 134.478 40.5789 134.299 40.5789C133.273 40.5789 132.336 39.2404 131.756 37.2327C131.31 35.7604 131.042 33.9311 131.042 31.968Z" fill="white"/>
<path d="M144.681 28.6218C145.038 32.8157 145.395 37.4558 145.796 39.062C146.108 40.4451 147.536 42.0512 149.232 42.9882C150.035 43.479 151.016 43.8359 151.908 43.8359C152.444 43.8359 153.024 43.702 153.47 43.3451C154.273 42.7205 154.675 41.1589 155.121 38.9727C155.835 35.4035 156.37 31.5665 156.549 30.228C156.593 30.9419 157.129 36.8758 157.976 39.4635C158.69 41.5605 161.858 43.3451 164.044 43.3451C164.669 43.3451 165.159 43.2113 165.427 42.8989C166.542 41.7389 167.792 37.5897 168.729 33.3065C169.621 29.3357 170.201 25.8557 170.201 23.9818C170.201 23.6695 170.201 23.3572 170.156 23.1341C169.799 21.171 168.639 20.5017 167.703 20.5017C167.569 20.5017 167.435 20.5464 167.346 20.5464C167.346 22.1079 166.721 26.8818 165.829 31.165C164.936 35.4035 163.91 39.2851 163.196 39.2851C161.992 39.2851 161.769 34.3327 161.546 30.7634C161.412 28.5326 161.322 26.2572 161.055 25.231C160.475 23.1787 157.664 22.3756 155.79 22.3756C155.522 22.3756 155.21 22.3756 154.987 22.4202C155.032 22.7325 155.032 23.3126 155.032 23.7141C155.032 25.7664 154.63 29.068 154.05 32.1019C153.292 36.1173 152.221 39.7312 151.462 39.7312C150.615 39.7312 150.213 34.4665 149.901 30.8526C149.588 27.5064 149.365 24.0264 148.919 23.0002C148.295 21.5725 146.956 21.3048 145.662 21.3048C144.948 21.3048 144.324 21.3941 143.922 21.4833C144.101 22.6433 144.368 25.4987 144.681 28.6218Z" fill="white"/>
<path d="M183.476 29.5142C185.038 28.2649 185.885 26.7926 185.885 25.1864C185.885 24.4726 185.751 23.7587 185.394 23.0449C184.591 21.2602 182.004 19.9217 179.327 19.9217C177.096 19.9217 174.776 20.8587 173.17 23.2233C171.564 25.5433 170.805 28.7557 170.805 31.8788C170.805 34.9573 171.519 37.9466 173.125 39.9543C175.133 42.4974 178.033 43.3897 180.665 43.3897C183.342 43.3897 185.841 42.3636 187.67 40.6682C188.964 39.4635 189.856 37.9466 190.168 36.2066C190.213 36.0281 190.213 35.8496 190.213 35.6712C190.213 34.5112 189.588 33.6188 188.741 33.6188C188.428 35.4927 187.491 37.2327 186.242 38.482C184.993 39.7312 183.431 40.4897 181.914 40.4897C180.754 40.4897 179.55 39.9989 178.524 38.8835C177.007 37.322 176.471 34.5558 176.471 31.7003C178.881 31.7003 181.557 31.0311 183.476 29.5142ZM180.13 22.1525C181.067 22.1525 181.87 23.3126 181.87 24.5618C181.87 25.7664 181.156 27.3726 179.817 28.3095C178.702 29.0234 177.676 29.3803 176.561 29.6034C176.962 26.0341 178.39 22.1525 180.13 22.1525Z" fill="white"/>
<path d="M192.639 37.8573C192.639 36.6973 193.085 34.9573 193.71 33.3511C194.201 32.0573 194.781 30.808 195.361 29.8711C196.565 31.7003 198.751 32.905 201.25 32.905C203.793 32.905 205.89 31.5219 205.89 29.2465C205.89 28.1757 205.399 27.5065 204.641 27.4172C204.284 28.8449 202.945 30.0942 201.518 30.0942C201.384 30.0942 201.205 30.0942 201.071 30.0496C198.93 29.6034 198.127 27.2834 198.127 27.2834C198.127 27.2834 199.956 25.1864 199.956 23.9818C199.956 22.1972 198.038 20.6802 196.61 20.6802C196.253 20.6802 195.941 20.7694 195.673 20.9925C195.004 21.5279 194.513 22.5095 194.201 23.8033C194.067 24.3833 194.022 24.9633 194.022 25.4095C194.022 25.7218 194.067 26.0787 194.111 26.3911C193.665 27.2388 193.174 28.488 192.773 29.8265V28.0865C192.773 26.2126 192.684 24.3833 191.791 23.0449C191.077 21.8848 189.917 21.0818 188.624 21.0818C188.311 21.0818 187.999 21.1264 187.687 21.2156C187.776 21.7064 187.865 22.4202 187.865 23.3572C187.865 24.3833 187.82 25.6772 187.776 27.1049C187.731 28.8449 187.687 31.2988 187.687 33.1281C187.687 36.385 187.865 39.4635 188.4 40.802C188.847 42.0066 190.364 43.2113 191.791 43.2113C192.148 43.2113 192.505 43.1666 192.817 42.9882C192.684 41.2482 192.639 39.6866 192.639 37.8573Z" fill="white"/>
<path d="M207.409 24.1603C207.008 22.1972 204.643 21.2156 202.992 21.2156H202.769C202.814 21.5279 202.814 21.8848 202.814 22.2418C202.814 23.1787 202.725 24.3833 202.591 25.6772C202.591 25.8557 202.546 26.0787 202.546 26.2572C202.368 28.3095 202.234 30.5849 202.234 32.6819C202.234 34.065 202.234 35.4035 202.502 36.6527C203.082 39.4189 205.312 42.7651 208.302 42.7651C208.748 42.7651 209.239 42.6759 209.729 42.4974C210.532 42.2297 211.157 41.382 211.782 40.0881C213.299 37.0989 214.459 32.1465 215.217 29.6034C214.949 31.0311 214.682 33.7973 214.682 35.8942C214.682 37.2327 214.905 38.7051 215.306 39.9543C216.154 42.3636 218.117 43.3451 219.991 43.3451C220.749 43.3451 221.508 43.1666 222.133 42.8989C224.051 42.0512 225.88 39.1066 225.88 37.6789C225.88 36.3404 224.988 35.8942 224.542 35.8942C224.453 36.2958 223.917 37.3666 223.159 38.4374C222.4 39.5081 221.374 40.5343 220.571 40.5343C219.188 40.5343 219.188 38.0358 219.188 36.9204C219.188 35.5373 219.277 33.9758 219.456 32.0573C219.589 30.2726 219.768 28.2203 219.768 26.4803C219.768 24.7849 218.608 23.3126 217.403 22.3756C216.556 21.7064 215.663 21.3048 215.128 21.3048C214.816 21.3048 214.637 21.3941 214.592 21.6618C214.459 22.3756 214.146 23.7141 213.834 25.0972C212.719 29.8265 210.755 37.2327 209.372 38.3035C209.149 38.482 208.971 38.5712 208.748 38.5712C208.168 38.5712 207.632 37.9466 207.32 36.6527C207.231 36.3404 207.231 35.805 207.231 35.1358C207.231 32.8604 207.543 28.9788 207.588 27.1049C207.588 25.9003 207.543 24.8741 207.409 24.1603Z" fill="white"/>
<path d="M227.339 21.0371C227.206 21.4387 227.161 21.8402 227.161 22.2864C227.161 22.8218 227.25 23.4018 227.384 23.9818C226.982 25.9895 226.402 28.0865 225.778 30.0496C225.198 31.9234 224.529 33.5742 223.904 34.9573C223.77 34.8235 223.681 34.6896 223.636 34.6004C222.387 35.0465 221.985 36.2066 221.985 37.4112C221.985 38.125 222.119 38.8389 222.432 39.4635C224.261 43.122 229.347 44.1928 233.006 44.1928C235.236 44.1928 238.672 43.1666 240.903 41.382C242.063 40.4451 243 39.2851 243 37.6789C243 36.4296 242.241 36.0727 241.75 35.8942C241.26 37.1881 240.546 38.3035 239.341 39.2851C238.047 40.3112 237.378 40.6682 236.396 41.2482C237.512 39.1066 237.869 37.4558 237.869 36.2066C237.869 32.9496 236.396 30.4511 235.058 27.7741C235.058 27.7741 234.076 25.9003 233.273 24.4279C233.05 24.0264 232.961 23.6249 232.961 23.2233C232.961 22.5987 233.184 21.8848 233.541 21.4387C233.987 20.8587 235.058 20.7248 235.058 20.1448C235.058 19.7879 234.612 19.431 233.987 19.2525C233.05 18.9848 231.801 18.851 231.489 18.851C229.57 18.851 227.875 19.5202 227.339 21.0371ZM227.83 32.6373C228.321 31.2096 228.767 29.7372 229.169 28.3095C229.927 29.6926 230.596 31.1203 231.176 32.5927C231.712 33.9311 232.559 36.4743 232.559 38.3927C232.559 39.4635 232.292 40.3558 231.533 40.7574C231.266 40.8912 230.998 40.9358 230.686 40.9358C228.767 40.9358 225.822 39.0174 225.599 38.0804C226.001 36.7866 227.116 34.6896 227.83 32.6373Z" fill="white"/>
<path d="M25.0965 50.8404C38.9569 50.8404 50.1929 39.6043 50.1929 25.7439C50.1929 11.8835 38.9569 0.647461 25.0965 0.647461C11.2361 0.647461 0 11.8835 0 25.7439C0 39.6043 11.2361 50.8404 25.0965 50.8404Z" fill="#5D93E5"/>
<path d="M25.0965 48.7211C38.9569 48.7211 50.1929 37.9595 50.1929 24.6843C50.1929 11.4091 38.9569 0.647461 25.0965 0.647461C11.2361 0.647461 0 11.4091 0 24.6843C0 37.9595 11.2361 48.7211 25.0965 48.7211Z" fill="#81B3FF"/>
<path d="M24.6292 11.6797C20.2641 11.6797 16.7033 15.2527 16.7033 19.6178C16.7033 22.2861 18.0385 24.6503 20.0705 26.0884C15.331 27.9874 11.9688 32.6215 11.9688 38.0285C11.976 38.3553 12.1109 38.6662 12.3446 38.8947C12.5782 39.1232 12.8921 39.2513 13.2189 39.2513C13.5458 39.2513 13.8596 39.1232 14.0933 38.8947C14.3269 38.6662 14.4618 38.3553 14.4691 38.0285C14.4691 32.2902 19.0959 27.6657 24.8343 27.6657C26.8374 27.6657 28.6968 28.2368 30.2794 29.2163C30.4196 29.3033 30.5755 29.3618 30.7383 29.3885C30.9011 29.4152 31.0675 29.4095 31.2281 29.3717C31.3887 29.334 31.5402 29.265 31.6741 29.1686C31.808 29.0722 31.9215 28.9504 32.0082 28.8101C32.0949 28.6698 32.1531 28.5137 32.1794 28.3508C32.2057 28.188 32.1996 28.0215 32.1615 27.861C32.1234 27.7005 32.054 27.5491 31.9573 27.4154C31.8606 27.2818 31.7385 27.1686 31.598 27.0822C30.8848 26.6409 30.1107 26.2954 29.3125 25.9981C31.2789 24.5526 32.5673 22.2329 32.5673 19.6178C32.5673 15.2527 28.9943 11.6797 24.6292 11.6797ZM24.6292 14.1824C27.643 14.1824 30.067 16.604 30.067 19.6178C30.067 22.6316 27.643 25.0434 24.6292 25.0434C21.6154 25.0434 19.2037 22.6316 19.2037 19.6178C19.2037 16.604 21.6154 14.1824 24.6292 14.1824ZM37.2824 29.187C37.0792 29.1929 36.8805 29.2481 36.7035 29.3481C36.5265 29.4481 36.3765 29.5898 36.2666 29.7608L31.9569 36.2193L29.2539 34.4099C29.1168 34.3177 28.9629 34.2535 28.801 34.221C28.6391 34.1884 28.4723 34.1881 28.3103 34.2201C28.1483 34.2521 27.9941 34.3159 27.8568 34.4076C27.7194 34.4993 27.6014 34.6172 27.5097 34.7545C27.418 34.8919 27.3543 35.0458 27.3222 35.2079C27.2902 35.3699 27.2904 35.5368 27.3229 35.6987C27.3554 35.8606 27.4195 36.0145 27.5117 36.1516C27.6038 36.2887 27.722 36.4063 27.8597 36.4976L31.6175 38.998C31.7544 39.0888 31.9079 39.1518 32.0691 39.1833C32.2303 39.2147 32.3962 39.214 32.5572 39.1814C32.7182 39.1487 32.8712 39.0847 33.0074 38.9929C33.1436 38.9011 33.2604 38.7834 33.3511 38.6464L38.3543 31.1429C38.4848 30.9523 38.5599 30.7292 38.5713 30.4985C38.5827 30.2678 38.53 30.0384 38.419 29.8358C38.3079 29.6332 38.1429 29.4654 37.9423 29.3508C37.7417 29.2363 37.5133 29.1796 37.2824 29.187Z" fill="white"/>
</svg>
