<svg width="243" height="51" viewBox="0 0 243 51" fill="none" xmlns="http://www.w3.org/2000/svg">
<path d="M67.8064 25.4539C67.4048 25.7216 67.2264 26.3016 67.2264 26.837C67.2264 27.5062 67.4495 28.1754 67.6725 28.3985C67.6725 28.3985 69.9033 28.3539 72.6249 28.2201C72.5357 31.477 72.4464 34.1986 72.4464 36.4294C72.4464 38.1248 72.4911 39.5971 72.6249 40.9356C72.8926 44.2372 76.3726 45.0403 77.7557 45.0403H78.068C77.9342 42.8541 77.845 39.4187 77.845 34.7786C77.845 32.7709 77.845 30.4955 77.8896 27.9524L80.5219 27.8185C82.1727 27.7293 83.645 26.8816 83.645 25.4539C83.645 25.2308 83.6004 24.9631 83.5112 24.6954C82.8419 24.74 82.1281 24.7846 81.1019 24.7846C80.3881 24.7846 79.585 24.74 78.6927 24.74H77.9788C77.9788 23.4015 78.0234 21.8846 78.0234 20.4123C78.0234 18.0476 77.9788 15.683 77.8896 14.2107C78.2019 14.2107 78.5588 14.2553 78.8711 14.2553C80.3435 14.3445 81.8604 14.4337 83.1543 14.4337C83.8235 14.4337 84.4927 14.4337 85.1174 14.3445C86.6789 14.1214 87.2143 13.0953 87.2143 12.2476C87.2143 12.0691 87.2143 11.9352 87.1697 11.8014C82.5296 11.7568 78.3804 11.0429 74.4988 10.7306C71.5987 10.5075 69.2787 10.2398 67.3156 10.2398C64.1925 10.2398 62.0509 10.7752 60.5786 12.4706C59.8201 13.2737 59.5078 14.4337 59.5078 15.5491C59.5078 17.2445 60.1324 18.8061 61.5601 19.0738C61.7386 18.1815 62.4078 17.1553 63.8356 16.263C65.6202 15.1476 68.4756 14.2553 73.0711 14.0768V14.2999C73.0711 18.0476 72.8926 21.3938 72.7141 24.6954C70.4833 24.74 68.6541 24.8739 67.8064 25.4539Z" fill="#292E43"/>
<path d="M107.297 31.7447C107.967 30.9416 108.234 30.0047 108.234 29.4247C108.234 28.3985 107.52 27.6847 106.94 27.3277C106.539 28.4878 105.691 29.3801 104.62 30.0047C103.728 30.5401 102.657 30.9416 101.542 31.1647C101.453 29.1124 101.096 27.06 100.56 25.3646C99.8465 23.2677 98.3742 21.6615 96.1434 20.8138C95.2065 20.4569 94.1803 20.2338 93.1988 20.2338C92.3957 20.2338 91.6372 20.3677 90.9234 20.7246C90.0757 20.7692 89.1833 21.0815 88.291 21.7954C86.0602 23.4462 84.7664 27.417 84.7664 31.5663C84.7664 34.2432 85.3018 37.0986 86.5956 39.374C87.9341 41.8279 91.4141 43.4341 94.4034 43.4341C95.5634 43.4341 96.6788 43.1664 97.5265 42.631C99.9358 41.1141 100.962 37.9463 101.363 34.5109C103.907 34.154 105.959 33.3063 107.297 31.7447ZM93.6449 29.8262C92.4403 28.6216 91.6818 27.1939 91.6818 25.8554C91.6818 25.1416 91.9049 24.4723 92.3957 23.8923C92.7526 23.5354 93.1542 23.3569 93.6003 23.3569C94.8496 23.3569 96.4111 24.6062 97.125 26.3908C97.4819 27.3277 97.6604 28.6216 97.6604 29.8709C97.6604 30.4062 97.6158 30.9416 97.5711 31.3878C96.2773 31.3432 94.6711 30.8078 93.6449 29.8262ZM90.5218 31.9678C91.5034 32.7263 92.5295 33.3063 93.6449 33.7078C94.7603 34.1094 95.9203 34.3771 97.0804 34.5555C96.768 35.9832 96.3665 37.3663 95.8757 38.4371C95.385 39.5079 94.8496 40.2217 94.3142 40.4448C94.1357 40.5341 93.9572 40.5787 93.7788 40.5787C92.7526 40.5787 91.8157 39.2402 91.2357 37.2325C90.7895 35.7602 90.5218 33.9309 90.5218 31.9678Z" fill="#292E43"/>
<path d="M103.848 30.2724C104.339 35.4032 104.785 39.4187 106.123 41.2479C107.283 42.8095 108.89 43.5233 110.585 43.5233C111.299 43.5233 112.013 43.3895 112.727 43.1218C113.753 42.7202 115.359 41.2479 116.207 39.8202C116.519 39.2848 116.742 38.794 116.742 38.0356C116.742 36.7863 116.028 35.9832 115.537 35.894C115.359 36.8756 114.734 38.2586 113.887 39.2848C113.262 40.0433 112.548 40.6233 111.834 40.6233C111.611 40.6233 111.388 40.5787 111.165 40.4448C109.603 39.5079 109.336 36.0279 109.336 31.7893V30.6739C111.076 25.8554 112.593 21.3492 112.593 16.8876C112.593 14.523 111.834 11.6675 110.228 9.92753C109.336 8.99059 108.176 8.36597 106.748 8.36597C105.543 8.36597 104.517 9.12444 104.116 10.8198C103.625 12.6937 103.446 16.3076 103.446 20.0553C103.446 23.58 103.58 27.417 103.848 30.2724ZM108.22 26.3462C107.908 24.2046 107.73 21.6169 107.73 18.6276C107.73 16.3522 107.863 14.6122 108.711 14.6122C109.603 14.6122 109.916 15.9507 109.916 17.5569C109.916 20.7246 108.22 26.3462 108.22 26.3462Z" fill="#292E43"/>
<path d="M114.523 30.2724C115.014 35.4032 115.46 39.4187 116.798 41.2479C117.958 42.8095 119.564 43.5233 121.26 43.5233C121.974 43.5233 122.687 43.3895 123.401 43.1218C124.427 42.7202 126.034 41.2479 126.881 39.8202C127.194 39.2848 127.417 38.794 127.417 38.0356C127.417 36.7863 126.703 35.9832 126.212 35.894C126.034 36.8756 125.409 38.2586 124.561 39.2848C123.937 40.0433 123.223 40.6233 122.509 40.6233C122.286 40.6233 122.063 40.5787 121.84 40.4448C120.278 39.5079 120.011 36.0279 120.011 31.7893V30.6739C121.751 25.8554 123.267 21.3492 123.267 16.8876C123.267 14.523 122.509 11.6675 120.903 9.92753C120.011 8.99059 118.85 8.36597 117.423 8.36597C116.218 8.36597 115.192 9.12444 114.79 10.8198C114.3 12.6937 114.121 16.3076 114.121 20.0553C114.121 23.58 114.255 27.417 114.523 30.2724ZM118.895 26.3462C118.583 24.2046 118.404 21.6169 118.404 18.6276C118.404 16.3522 118.538 14.6122 119.386 14.6122C120.278 14.6122 120.591 15.9507 120.591 17.5569C120.591 20.7246 118.895 26.3462 118.895 26.3462Z" fill="#292E43"/>
<path d="M147.818 31.7447C148.487 30.9416 148.755 30.0047 148.755 29.4247C148.755 28.3985 148.041 27.6847 147.461 27.3277C147.059 28.4878 146.212 29.3801 145.141 30.0047C144.248 30.5401 143.178 30.9416 142.062 31.1647C141.973 29.1124 141.616 27.06 141.081 25.3646C140.367 23.2677 138.895 21.6615 136.664 20.8138C135.727 20.4569 134.701 20.2338 133.719 20.2338C132.916 20.2338 132.158 20.3677 131.444 20.7246C130.596 20.7692 129.704 21.0815 128.811 21.7954C126.581 23.4462 125.287 27.417 125.287 31.5663C125.287 34.2432 125.822 37.0986 127.116 39.374C128.454 41.8279 131.934 43.4341 134.924 43.4341C136.084 43.4341 137.199 43.1664 138.047 42.631C140.456 41.1141 141.482 37.9463 141.884 34.5109C144.427 34.154 146.479 33.3063 147.818 31.7447ZM134.165 29.8262C132.961 28.6216 132.202 27.1939 132.202 25.8554C132.202 25.1416 132.425 24.4723 132.916 23.8923C133.273 23.5354 133.674 23.3569 134.121 23.3569C135.37 23.3569 136.931 24.6062 137.645 26.3908C138.002 27.3277 138.181 28.6216 138.181 29.8709C138.181 30.4062 138.136 30.9416 138.091 31.3878C136.798 31.3432 135.191 30.8078 134.165 29.8262ZM131.042 31.9678C132.024 32.7263 133.05 33.3063 134.165 33.7078C135.281 34.1094 136.441 34.3771 137.601 34.5555C137.288 35.9832 136.887 37.3663 136.396 38.4371C135.905 39.5079 135.37 40.2217 134.835 40.4448C134.656 40.5341 134.478 40.5787 134.299 40.5787C133.273 40.5787 132.336 39.2402 131.756 37.2325C131.31 35.7602 131.042 33.9309 131.042 31.9678Z" fill="#292E43"/>
<path d="M144.681 28.6216C145.038 32.8155 145.395 37.4556 145.796 39.0617C146.108 40.4448 147.536 42.051 149.232 42.9879C150.035 43.4787 151.016 43.8356 151.908 43.8356C152.444 43.8356 153.024 43.7018 153.47 43.3449C154.273 42.7202 154.675 41.1587 155.121 38.9725C155.835 35.4032 156.37 31.5663 156.549 30.2278C156.593 30.9416 157.129 36.8756 157.976 39.4633C158.69 41.5602 161.858 43.3449 164.044 43.3449C164.669 43.3449 165.159 43.211 165.427 42.8987C166.542 41.7387 167.792 37.5894 168.729 33.3063C169.621 29.3355 170.201 25.8554 170.201 23.9815C170.201 23.6692 170.201 23.3569 170.156 23.1338C169.799 21.1707 168.639 20.5015 167.703 20.5015C167.569 20.5015 167.435 20.5461 167.346 20.5461C167.346 22.1077 166.721 26.8816 165.829 31.1647C164.936 35.4032 163.91 39.2848 163.196 39.2848C161.992 39.2848 161.769 34.3324 161.546 30.7632C161.412 28.5324 161.322 26.257 161.055 25.2308C160.475 23.1785 157.664 22.3754 155.79 22.3754C155.522 22.3754 155.21 22.3754 154.987 22.42C155.032 22.7323 155.032 23.3123 155.032 23.7139C155.032 25.7662 154.63 29.0678 154.05 32.1016C153.292 36.1171 152.221 39.731 151.462 39.731C150.615 39.731 150.213 34.4663 149.901 30.8524C149.588 27.5062 149.365 24.0262 148.919 23C148.295 21.5723 146.956 21.3046 145.662 21.3046C144.948 21.3046 144.324 21.3938 143.922 21.4831C144.101 22.6431 144.368 25.4985 144.681 28.6216Z" fill="#292E43"/>
<path d="M183.476 29.5139C185.038 28.2647 185.885 26.7924 185.885 25.1862C185.885 24.4723 185.751 23.7585 185.394 23.0446C184.591 21.26 182.004 19.9215 179.327 19.9215C177.096 19.9215 174.776 20.8584 173.17 23.2231C171.564 25.5431 170.805 28.7555 170.805 31.8786C170.805 34.9571 171.519 37.9463 173.125 39.9541C175.133 42.4972 178.033 43.3895 180.665 43.3895C183.342 43.3895 185.841 42.3633 187.67 40.6679C188.964 39.4633 189.856 37.9463 190.168 36.2063C190.213 36.0278 190.213 35.8494 190.213 35.6709C190.213 34.5109 189.588 33.6186 188.741 33.6186C188.428 35.4925 187.491 37.2325 186.242 38.4817C184.993 39.731 183.431 40.4894 181.914 40.4894C180.754 40.4894 179.55 39.9987 178.524 38.8833C177.007 37.3217 176.471 34.5555 176.471 31.7001C178.881 31.7001 181.557 31.0309 183.476 29.5139ZM180.13 22.1523C181.067 22.1523 181.87 23.3123 181.87 24.5616C181.87 25.7662 181.156 27.3724 179.817 28.3093C178.702 29.0231 177.676 29.3801 176.561 29.6032C176.962 26.0339 178.39 22.1523 180.13 22.1523Z" fill="#292E43"/>
<path d="M192.639 37.8571C192.639 36.6971 193.085 34.9571 193.71 33.3509C194.201 32.057 194.781 30.8078 195.361 29.8709C196.565 31.7001 198.751 32.9047 201.25 32.9047C203.793 32.9047 205.89 31.5216 205.89 29.2462C205.89 28.1754 205.399 27.5062 204.641 27.417C204.284 28.8447 202.945 30.0939 201.518 30.0939C201.384 30.0939 201.205 30.0939 201.071 30.0493C198.93 29.6032 198.127 27.2831 198.127 27.2831C198.127 27.2831 199.956 25.1862 199.956 23.9815C199.956 22.1969 198.038 20.68 196.61 20.68C196.253 20.68 195.941 20.7692 195.673 20.9923C195.004 21.5277 194.513 22.5092 194.201 23.8031C194.067 24.3831 194.022 24.9631 194.022 25.4093C194.022 25.7216 194.067 26.0785 194.111 26.3908C193.665 27.2385 193.174 28.4878 192.773 29.8262V28.0862C192.773 26.2123 192.684 24.3831 191.791 23.0446C191.077 21.8846 189.917 21.0815 188.624 21.0815C188.311 21.0815 187.999 21.1261 187.687 21.2154C187.776 21.7061 187.865 22.42 187.865 23.3569C187.865 24.3831 187.82 25.677 187.776 27.1047C187.731 28.8447 187.687 31.2986 187.687 33.1278C187.687 36.3848 187.865 39.4633 188.4 40.8018C188.847 42.0064 190.364 43.211 191.791 43.211C192.148 43.211 192.505 43.1664 192.817 42.9879C192.684 41.2479 192.639 39.6864 192.639 37.8571Z" fill="#292E43"/>
<path d="M207.409 24.16C207.008 22.1969 204.643 21.2154 202.992 21.2154H202.769C202.814 21.5277 202.814 21.8846 202.814 22.2415C202.814 23.1785 202.725 24.3831 202.591 25.677C202.591 25.8554 202.546 26.0785 202.546 26.257C202.368 28.3093 202.234 30.5847 202.234 32.6817C202.234 34.0647 202.234 35.4032 202.502 36.6525C203.082 39.4187 205.312 42.7649 208.302 42.7649C208.748 42.7649 209.239 42.6756 209.729 42.4972C210.532 42.2295 211.157 41.3818 211.782 40.0879C213.299 37.0986 214.459 32.1463 215.217 29.6032C214.949 31.0309 214.682 33.7971 214.682 35.894C214.682 37.2325 214.905 38.7048 215.306 39.9541C216.154 42.3633 218.117 43.3449 219.991 43.3449C220.749 43.3449 221.508 43.1664 222.133 42.8987C224.051 42.051 225.88 39.1064 225.88 37.6786C225.88 36.3402 224.988 35.894 224.542 35.894C224.453 36.2955 223.917 37.3663 223.159 38.4371C222.4 39.5079 221.374 40.5341 220.571 40.5341C219.188 40.5341 219.188 38.0356 219.188 36.9202C219.188 35.5371 219.277 33.9755 219.456 32.057C219.589 30.2724 219.768 28.2201 219.768 26.48C219.768 24.7846 218.608 23.3123 217.403 22.3754C216.556 21.7061 215.663 21.3046 215.128 21.3046C214.816 21.3046 214.637 21.3938 214.592 21.6615C214.459 22.3754 214.146 23.7139 213.834 25.0969C212.719 29.8262 210.755 37.2325 209.372 38.3033C209.149 38.4817 208.971 38.571 208.748 38.571C208.168 38.571 207.632 37.9463 207.32 36.6525C207.231 36.3402 207.231 35.8048 207.231 35.1355C207.231 32.8601 207.543 28.9785 207.588 27.1047C207.588 25.9 207.543 24.8739 207.409 24.16Z" fill="#292E43"/>
<path d="M227.339 21.0369C227.206 21.4384 227.161 21.84 227.161 22.2861C227.161 22.8215 227.25 23.4015 227.384 23.9815C226.982 25.9893 226.402 28.0862 225.778 30.0493C225.198 31.9232 224.529 33.574 223.904 34.9571C223.77 34.8232 223.681 34.6894 223.636 34.6001C222.387 35.0463 221.985 36.2063 221.985 37.4109C221.985 38.1248 222.119 38.8387 222.432 39.4633C224.261 43.1218 229.347 44.1926 233.006 44.1926C235.236 44.1926 238.672 43.1664 240.903 41.3818C242.063 40.4448 243 39.2848 243 37.6786C243 36.4294 242.241 36.0725 241.75 35.894C241.26 37.1879 240.546 38.3033 239.341 39.2848C238.047 40.311 237.378 40.6679 236.396 41.2479C237.512 39.1064 237.869 37.4556 237.869 36.2063C237.869 32.9494 236.396 30.4509 235.058 27.7739C235.058 27.7739 234.076 25.9 233.273 24.4277C233.05 24.0262 232.961 23.6246 232.961 23.2231C232.961 22.5985 233.184 21.8846 233.541 21.4384C233.987 20.8584 235.058 20.7246 235.058 20.1446C235.058 19.7876 234.612 19.4307 233.987 19.2523C233.05 18.9846 231.801 18.8507 231.489 18.8507C229.57 18.8507 227.875 19.52 227.339 21.0369ZM227.83 32.637C228.321 31.2093 228.767 29.737 229.169 28.3093C229.927 29.6924 230.596 31.1201 231.176 32.5924C231.712 33.9309 232.559 36.474 232.559 38.3925C232.559 39.4633 232.292 40.3556 231.533 40.7571C231.266 40.891 230.998 40.9356 230.686 40.9356C228.767 40.9356 225.822 39.0171 225.599 38.0802C226.001 36.7863 227.116 34.6894 227.83 32.637Z" fill="#292E43"/>
<path d="M25.0965 50.8404C38.9569 50.8404 50.1929 39.6043 50.1929 25.7439C50.1929 11.8835 38.9569 0.647461 25.0965 0.647461C11.2361 0.647461 0 11.8835 0 25.7439C0 39.6043 11.2361 50.8404 25.0965 50.8404Z" fill="#5D93E5"/>
<path d="M25.0965 48.7211C38.9569 48.7211 50.1929 37.9595 50.1929 24.6843C50.1929 11.4091 38.9569 0.647461 25.0965 0.647461C11.2361 0.647461 0 11.4091 0 24.6843C0 37.9595 11.2361 48.7211 25.0965 48.7211Z" fill="#81B3FF"/>
<path d="M24.6292 11.6794C20.2641 11.6794 16.7033 15.2525 16.7033 19.6175C16.7033 22.2859 18.0385 24.65 20.0705 26.0881C15.331 27.9872 11.9688 32.6212 11.9688 38.0283C11.976 38.355 12.1109 38.6659 12.3446 38.8945C12.5782 39.123 12.8921 39.2511 13.2189 39.2511C13.5458 39.2511 13.8596 39.123 14.0933 38.8945C14.3269 38.6659 14.4618 38.355 14.4691 38.0283C14.4691 32.2899 19.0959 27.6655 24.8343 27.6655C26.8374 27.6655 28.6968 28.2365 30.2794 29.2161C30.4196 29.3031 30.5755 29.3615 30.7383 29.3882C30.9011 29.4149 31.0675 29.4092 31.2281 29.3715C31.3887 29.3338 31.5402 29.2647 31.6741 29.1683C31.808 29.0719 31.9215 28.9502 32.0082 28.8099C32.0949 28.6695 32.1531 28.5134 32.1794 28.3506C32.2057 28.1877 32.1996 28.0212 32.1615 27.8607C32.1234 27.7002 32.054 27.5488 31.9573 27.4152C31.8606 27.2815 31.7385 27.1683 31.598 27.0819C30.8848 26.6406 30.1107 26.2951 29.3125 25.9979C31.2789 24.5524 32.5673 22.2326 32.5673 19.6175C32.5673 15.2525 28.9943 11.6794 24.6292 11.6794ZM24.6292 14.1821C27.643 14.1821 30.067 16.6037 30.067 19.6175C30.067 22.6313 27.643 25.0431 24.6292 25.0431C21.6154 25.0431 19.2037 22.6313 19.2037 19.6175C19.2037 16.6037 21.6154 14.1821 24.6292 14.1821ZM37.2824 29.1868C37.0792 29.1926 36.8805 29.2479 36.7035 29.3479C36.5265 29.4478 36.3765 29.5895 36.2666 29.7605L31.9569 36.219L29.2539 34.4096C29.1168 34.3175 28.9629 34.2533 28.801 34.2207C28.6391 34.1882 28.4723 34.1879 28.3103 34.2199C28.1483 34.2519 27.9941 34.3156 27.8568 34.4073C27.7194 34.499 27.6014 34.6169 27.5097 34.7543C27.418 34.8916 27.3543 35.0456 27.3222 35.2076C27.2902 35.3696 27.2904 35.5365 27.3229 35.6985C27.3554 35.8604 27.4195 36.0143 27.5117 36.1514C27.6038 36.2885 27.722 36.406 27.8597 36.4973L31.6175 38.9977C31.7544 39.0885 31.9079 39.1515 32.0691 39.183C32.2303 39.2145 32.3962 39.2138 32.5572 39.1811C32.7182 39.1485 32.8712 39.0845 33.0074 38.9927C33.1436 38.9009 33.2604 38.7831 33.3511 38.6462L38.3543 31.1427C38.4848 30.9521 38.5599 30.729 38.5713 30.4983C38.5827 30.2675 38.53 30.0381 38.419 29.8355C38.3079 29.6329 38.1429 29.4651 37.9423 29.3506C37.7417 29.2361 37.5133 29.1794 37.2824 29.1868Z" fill="white"/>
</svg>
