<svg width="1920" height="8547" viewBox="0 0 1920 8547" fill="none" xmlns="http://www.w3.org/2000/svg">
<g clip-path="url(#clip0_6367_230)">
<rect width="1920" height="8547" fill="white"/>
<rect width="1920" height="8547" fill="white"/>
<path d="M0 7374C0 7374 468 7283 960 7374C1452 7465 1920 7374 1920 7374V8209H0V7374Z" fill="url(#paint0_linear_6367_230)"/>
<rect x="1606" y="7322" width="203" height="203" rx="101.5" stroke="url(#paint1_linear_6367_230)" stroke-width="40"/>
<rect x="1606" y="7322" width="203" height="203" rx="101.5" stroke="url(#paint2_linear_6367_230)" stroke-width="40"/>
<rect x="-216" y="7193" width="431" height="431" rx="215.5" stroke="url(#paint3_linear_6367_230)" stroke-width="40"/>
<rect x="-216" y="7193" width="431" height="431" rx="215.5" stroke="url(#paint4_linear_6367_230)" stroke-width="40"/>
<rect x="1642" y="1436" width="203" height="203" rx="101.5" stroke="url(#paint5_linear_6367_230)" stroke-width="40"/>
<rect x="1642" y="1436" width="203" height="203" rx="101.5" stroke="url(#paint6_linear_6367_230)" stroke-width="40"/>
<rect x="1642" y="4621" width="203" height="203" rx="101.5" stroke="url(#paint7_linear_6367_230)" stroke-width="40"/>
<rect x="1642" y="4621" width="203" height="203" rx="101.5" stroke="url(#paint8_linear_6367_230)" stroke-width="40"/>
<rect x="74" y="2462" width="203" height="203" rx="101.5" stroke="url(#paint9_linear_6367_230)" stroke-width="40"/>
<rect x="74" y="2462" width="203" height="203" rx="101.5" stroke="url(#paint10_linear_6367_230)" stroke-width="40"/>
<rect x="54" y="5647" width="203" height="203" rx="101.5" stroke="url(#paint11_linear_6367_230)" stroke-width="40"/>
<rect x="54" y="5647" width="203" height="203" rx="101.5" stroke="url(#paint12_linear_6367_230)" stroke-width="40"/>
<rect x="-216" y="617" width="431" height="431" rx="215.5" stroke="url(#paint13_linear_6367_230)" stroke-width="40"/>
<rect x="-216" y="617" width="431" height="431" rx="215.5" stroke="url(#paint14_linear_6367_230)" stroke-width="40"/>
<rect x="-216" y="3802" width="431" height="431" rx="215.5" stroke="url(#paint15_linear_6367_230)" stroke-width="40"/>
<rect x="-216" y="3802" width="431" height="431" rx="215.5" stroke="url(#paint16_linear_6367_230)" stroke-width="40"/>
<rect x="1704" y="3096" width="431" height="431" rx="215.5" stroke="url(#paint17_linear_6367_230)" stroke-width="40"/>
<rect x="1704" y="3096" width="431" height="431" rx="215.5" stroke="url(#paint18_linear_6367_230)" stroke-width="40"/>
<rect x="1704" y="6281" width="431" height="431" rx="215.5" stroke="url(#paint19_linear_6367_230)" stroke-width="40"/>
<rect x="1704" y="6281" width="431" height="431" rx="215.5" stroke="url(#paint20_linear_6367_230)" stroke-width="40"/>
</g>
<defs>
<linearGradient id="paint0_linear_6367_230" x1="0" y1="7792.11" x2="1920" y2="7792.11" gradientUnits="userSpaceOnUse">
<stop stop-color="#FAFCFF"/>
<stop offset="0.49858" stop-color="#F5F9FF"/>
<stop offset="1" stop-color="#FAFCFF"/>
</linearGradient>
<linearGradient id="paint1_linear_6367_230" x1="1662.15" y1="7321.25" x2="1759.69" y2="7545" gradientUnits="userSpaceOnUse">
<stop stop-color="#81B2FF"/>
<stop offset="1" stop-color="white"/>
</linearGradient>
<linearGradient id="paint2_linear_6367_230" x1="1662.15" y1="7321.25" x2="1759.69" y2="7545" gradientUnits="userSpaceOnUse">
<stop stop-color="#81B2FF"/>
<stop offset="1" stop-color="#C5DCFF"/>
</linearGradient>
<linearGradient id="paint3_linear_6367_230" x1="-88.3979" y1="7210.32" x2="100.665" y2="7644" gradientUnits="userSpaceOnUse">
<stop stop-color="#81B2FF"/>
<stop offset="1" stop-color="white"/>
</linearGradient>
<linearGradient id="paint4_linear_6367_230" x1="-88.3979" y1="7210.32" x2="100.665" y2="7644" gradientUnits="userSpaceOnUse">
<stop stop-color="#81B2FF"/>
<stop offset="1" stop-color="#C5DCFF"/>
</linearGradient>
<linearGradient id="paint5_linear_6367_230" x1="1698.15" y1="1435.25" x2="1795.69" y2="1659" gradientUnits="userSpaceOnUse">
<stop stop-color="#81B2FF"/>
<stop offset="1" stop-color="white"/>
</linearGradient>
<linearGradient id="paint6_linear_6367_230" x1="1698.15" y1="1435.25" x2="1795.69" y2="1659" gradientUnits="userSpaceOnUse">
<stop stop-color="#81B2FF"/>
<stop offset="1" stop-color="#C5DCFF"/>
</linearGradient>
<linearGradient id="paint7_linear_6367_230" x1="1698.15" y1="4620.25" x2="1795.69" y2="4844" gradientUnits="userSpaceOnUse">
<stop stop-color="#81B2FF"/>
<stop offset="1" stop-color="white"/>
</linearGradient>
<linearGradient id="paint8_linear_6367_230" x1="1698.15" y1="4620.25" x2="1795.69" y2="4844" gradientUnits="userSpaceOnUse">
<stop stop-color="#81B2FF"/>
<stop offset="1" stop-color="#C5DCFF"/>
</linearGradient>
<linearGradient id="paint9_linear_6367_230" x1="130.151" y1="2461.25" x2="227.694" y2="2685" gradientUnits="userSpaceOnUse">
<stop stop-color="#81B2FF"/>
<stop offset="1" stop-color="white"/>
</linearGradient>
<linearGradient id="paint10_linear_6367_230" x1="130.151" y1="2461.25" x2="227.694" y2="2685" gradientUnits="userSpaceOnUse">
<stop stop-color="#81B2FF"/>
<stop offset="1" stop-color="#C5DCFF"/>
</linearGradient>
<linearGradient id="paint11_linear_6367_230" x1="110.151" y1="5646.25" x2="207.694" y2="5870" gradientUnits="userSpaceOnUse">
<stop stop-color="#81B2FF"/>
<stop offset="1" stop-color="white"/>
</linearGradient>
<linearGradient id="paint12_linear_6367_230" x1="110.151" y1="5646.25" x2="207.694" y2="5870" gradientUnits="userSpaceOnUse">
<stop stop-color="#81B2FF"/>
<stop offset="1" stop-color="#C5DCFF"/>
</linearGradient>
<linearGradient id="paint13_linear_6367_230" x1="-88.3979" y1="634.315" x2="100.665" y2="1068" gradientUnits="userSpaceOnUse">
<stop stop-color="#81B2FF"/>
<stop offset="1" stop-color="white"/>
</linearGradient>
<linearGradient id="paint14_linear_6367_230" x1="-88.3979" y1="634.315" x2="100.665" y2="1068" gradientUnits="userSpaceOnUse">
<stop stop-color="#81B2FF"/>
<stop offset="1" stop-color="#C5DCFF"/>
</linearGradient>
<linearGradient id="paint15_linear_6367_230" x1="-88.3979" y1="3819.32" x2="100.665" y2="4253" gradientUnits="userSpaceOnUse">
<stop stop-color="#81B2FF"/>
<stop offset="1" stop-color="white"/>
</linearGradient>
<linearGradient id="paint16_linear_6367_230" x1="-88.3979" y1="3819.32" x2="100.665" y2="4253" gradientUnits="userSpaceOnUse">
<stop stop-color="#81B2FF"/>
<stop offset="1" stop-color="#C5DCFF"/>
</linearGradient>
<linearGradient id="paint17_linear_6367_230" x1="1831.6" y1="3113.32" x2="2020.67" y2="3547" gradientUnits="userSpaceOnUse">
<stop stop-color="#81B2FF"/>
<stop offset="1" stop-color="white"/>
</linearGradient>
<linearGradient id="paint18_linear_6367_230" x1="1831.6" y1="3113.32" x2="2020.67" y2="3547" gradientUnits="userSpaceOnUse">
<stop stop-color="#81B2FF"/>
<stop offset="1" stop-color="#C5DCFF"/>
</linearGradient>
<linearGradient id="paint19_linear_6367_230" x1="1831.6" y1="6298.32" x2="2020.67" y2="6732" gradientUnits="userSpaceOnUse">
<stop stop-color="#81B2FF"/>
<stop offset="1" stop-color="white"/>
</linearGradient>
<linearGradient id="paint20_linear_6367_230" x1="1831.6" y1="6298.32" x2="2020.67" y2="6732" gradientUnits="userSpaceOnUse">
<stop stop-color="#81B2FF"/>
<stop offset="1" stop-color="#C5DCFF"/>
</linearGradient>
<clipPath id="clip0_6367_230">
<rect width="1920" height="8547" fill="white"/>
</clipPath>
</defs>
</svg>
