<svg width="278" height="261" viewBox="0 0 278 261" fill="none" xmlns="http://www.w3.org/2000/svg">
<path opacity="0.25" d="M171.022 0C128.712 0 94.4312 34.3226 94.4312 76.6376C94.4312 118.953 128.712 153.275 171.022 153.275C213.371 153.275 247.652 118.953 247.652 76.6376C247.652 34.3226 213.371 0 171.022 0ZM171.022 130.015C141.571 130.015 117.681 106.092 117.681 76.6299C117.681 47.1367 141.571 23.252 171.022 23.252C200.512 23.252 224.394 47.1444 224.394 76.6299C224.402 106.092 200.512 130.015 171.022 130.015Z" fill="#E4E5F4"/>
<path d="M78.8647 37.6939C81.0632 36.2513 82.9531 36.4904 84.357 36.9456C84.0716 37.1385 83.7939 37.339 83.5162 37.5319C83.6011 37.7711 83.6859 38.0025 83.763 38.2417C83.763 38.2417 81.3718 37.5242 80.1838 38.1954C80.1375 38.0256 80.0835 37.8559 80.0373 37.6862C80.0373 37.6785 79.559 37.5088 78.8647 37.6939Z" fill="#797DFF"/>
<path d="M105.802 32.5791C105.802 32.5791 107.514 31.7382 107.669 31.3679C107.761 31.4836 107.854 31.5993 107.938 31.715C108.054 31.7536 108.178 31.7845 108.293 31.823C108.293 31.823 107.368 32.6948 106.45 33.1731C106.396 33.0574 106.342 32.934 106.288 32.8182C106.118 32.7411 105.956 32.6562 105.802 32.5791Z" fill="#B8BDF4"/>
<path d="M90.2348 32.4711C90.2348 32.4711 89.2243 32.1934 88.4761 31.4527C88.6304 31.3679 88.7846 31.2753 88.9466 31.1904C88.9698 31.0362 88.9929 30.8819 89.016 30.7276C89.016 30.7276 90.4971 31.4759 91.0525 31.5453C91.0139 31.7382 90.9831 31.9311 90.9445 32.1239C90.7054 32.2396 90.4663 32.3554 90.2348 32.4711Z" fill="#B8BDF4"/>
<path d="M78.8877 29.2926C78.8877 29.2926 79.4508 29.8944 80.2916 30.2492C80.3148 30.1258 80.3379 30.0024 80.361 29.8789C80.469 29.8635 80.5693 29.8404 80.6773 29.8249C80.6773 29.8249 79.9522 29.5935 79.5588 29.1769C79.5125 29.2386 79.4662 29.3003 79.4277 29.3621C79.2503 29.3389 79.0728 29.3158 78.8877 29.2926Z" fill="#797DFF"/>
<path d="M95.9894 43.9351C95.9971 43.9351 93.976 41.8907 93.6289 41.6747C93.8526 41.7055 94.084 41.7441 94.3077 41.7827C94.3154 41.6053 94.3154 41.4201 94.3232 41.2427C94.3309 41.235 96.6219 43.1868 96.8919 43.3719C96.7068 43.4105 96.5139 43.4491 96.3288 43.4876C96.2131 43.6342 96.0974 43.7885 95.9894 43.9351Z" fill="#B8BDF4"/>
<path d="M218.192 71.9471C218.2 71.8622 218.262 71.7851 218.354 71.7696C218.47 71.7465 218.578 71.8082 218.609 71.9239C218.624 71.9856 220.252 78.1265 231.915 76.9539C236.081 76.5373 239.506 75.573 242.537 74.7244C248.13 73.1506 251.833 72.1168 254.27 76.545C254.324 76.6453 254.293 76.7765 254.185 76.8305C254.085 76.8845 253.954 76.8459 253.9 76.7456C251.617 72.6105 248.238 73.5594 242.645 75.1255C239.753 75.9356 236.15 76.9462 231.954 77.3705C219.905 78.5817 218.216 72.0859 218.2 72.0242C218.192 72.0011 218.192 71.9779 218.192 71.9471Z" fill="#EBF1F8"/>
<path d="M39.9251 228.956C39.9251 228.956 38.8837 221.797 29.1411 223.749C29.1411 223.749 32.2498 232.814 39.9251 228.956Z" fill="#E2E9F2"/>
<g opacity="0.52">
<path opacity="0.52" d="M29.5806 224.057L32.1339 225.523C32.9901 226.009 33.8386 226.487 34.7103 226.95C35.1423 227.182 35.5742 227.413 36.0139 227.629C36.4536 227.853 36.8933 228.061 37.3407 228.262C37.7881 228.462 38.2355 228.648 38.6984 228.802C39.1612 228.956 39.6317 229.087 40.1254 229.087C39.8786 229.118 39.6317 229.118 39.3849 229.08C39.1381 229.049 38.8989 228.995 38.6521 228.933C38.1738 228.81 37.7033 228.64 37.2482 228.462C36.3302 228.1 35.4431 227.66 34.5714 227.197C33.7075 226.727 32.8512 226.233 32.0181 225.708C31.1928 225.191 30.3751 224.644 29.5806 224.057Z" fill="#81B3FF"/>
</g>
<path d="M227.519 75.7736C227.519 75.7736 229.871 73.9066 228.537 70.3501C227.202 66.7937 226.547 67.4186 228.275 63.1446C230.002 58.8707 222.204 52.5138 217.853 53.9487C217.853 53.9487 213.101 50.8551 208.99 55.1136C202.503 61.8408 210.672 69.3549 208.635 72.6105C206.591 75.8661 206.251 73.3049 203.937 75.2104C201.623 77.1159 202.85 84.0514 211.798 82.5316C220.746 81.0041 215.909 81.1738 222.327 82.4082C228.745 83.6271 227.519 75.7736 227.519 75.7736Z" fill="#21267F"/>
<path opacity="0.5" d="M226.246 77.7099C224.85 77.3396 223.261 76.869 222.798 75.3261C222.674 74.9249 222.628 74.4621 222.644 74.0455C222.659 73.652 222.852 73.2894 222.867 72.896C222.89 72.3637 222.412 71.9008 222.104 71.5073C221.834 71.1679 221.602 70.8207 221.417 70.435C220.769 69.1235 220.607 67.7194 220.484 66.2999C220.214 66.8168 219.874 67.2951 219.465 67.7194C216.943 70.3193 212.022 71.1602 208.651 69.4552C209.029 70.7204 209.152 71.8005 208.643 72.6105C206.599 75.8661 206.259 73.3049 203.945 75.2104C201.631 77.1159 202.857 84.0514 211.806 82.5316C220.754 81.0041 215.917 81.1738 222.335 82.4082C226.485 83.2028 227.442 80.2018 227.596 77.9799C227.133 77.9028 226.678 77.8257 226.246 77.7099Z" fill="#21267F"/>
<path d="M134.296 238.846C134.296 239.896 127.508 240.744 119.139 240.744C110.769 240.744 103.981 239.896 103.981 238.846C103.981 237.797 110.769 236.949 119.139 236.949C127.508 236.941 134.296 237.789 134.296 238.846Z" fill="#EBF1F8"/>
<path d="M48.8809 257.315C46.1656 256.744 66.0906 254.26 83.0225 255.633C94.9481 256.598 102.323 257.647 102.323 257.647C102.323 257.647 82.7525 260.069 75.5015 259.969C68.2504 259.853 65.3037 260.787 48.8809 257.315Z" fill="#EBF1F8"/>
<path d="M180.287 255.147C182.3 254.461 167.242 256.559 154.538 254.862C141.995 253.196 140.144 257.662 140.144 257.662C140.144 257.662 154.985 259.283 160.423 258.881C165.869 258.48 168.129 259.29 180.287 255.147Z" fill="#EBF1F8"/>
<path d="M0.0290088 229.62C-1.17435 229.033 35.3739 231.224 51.4419 226.673C67.5099 222.121 119.463 226.403 154.808 226.673C190.153 226.943 183.172 224.266 208.998 224.69C254.201 225.431 263.558 225.431 277.99 228.123C277.99 228.123 235.95 235.151 208.095 230.237C180.248 225.33 184.259 230.684 148.914 232.829C113.569 234.974 126.691 231.224 96.6914 232.829C66.7076 234.434 13.1503 236.046 0.0290088 229.62Z" fill="#E2E9F2"/>
<path d="M86.8717 195.775C85.0821 198.46 67.9805 256.39 67.9805 256.39H82.2126C82.2126 256.39 104.274 202.341 104.081 198.46C103.896 194.58 86.8717 195.775 86.8717 195.775Z" fill="#E5C9C3"/>
<path opacity="0.65" d="M86.139 208.844C88.2834 209.893 90.6593 210.333 93.0197 210.557C94.6782 210.711 96.7224 210.796 97.6558 212.424C98.5429 213.974 97.9952 216.088 97.0232 217.461C96.0359 218.865 94.6011 219.891 93.6677 221.334C92.8732 222.561 92.7497 223.841 92.9272 225.245C93.0583 226.295 93.228 227.336 93.4131 228.385C98.836 214.545 104.174 200.389 104.081 198.468C103.896 194.587 86.8718 195.783 86.8718 195.783C86.4167 196.47 84.9742 200.72 83.0688 206.676C83.9714 207.548 84.9973 208.289 86.139 208.844Z" fill="#E5C9C3"/>
<path opacity="0.65" d="M81.8733 223.332C80.6313 224.273 86.5016 209.291 87.5507 208.096C88.5921 206.908 84.0332 221.689 81.8733 223.332Z" fill="#E5C9C3"/>
<path opacity="0.65" d="M85.0591 234.758C85.1362 234.457 88.268 222.584 90.7365 220.269C93.1972 217.955 85.0591 234.758 85.0591 234.758Z" fill="#E5C9C3"/>
<path opacity="0.65" d="M75.4785 244.879C75.4785 244.879 78.5409 234.426 80.0297 230.985C80.0297 230.985 77.6384 242.04 75.4785 244.879Z" fill="#E5C9C3"/>
<path opacity="0.65" d="M79.1118 253.281C79.1118 253.281 84.5192 241.107 86.8951 236.478C86.8874 236.478 81.7191 251.637 79.1118 253.281Z" fill="#E5C9C3"/>
<path d="M110.453 180.076C109.643 183.2 112.389 239.618 112.389 239.618L125.958 238.862C125.958 238.862 129.044 180.57 127.593 176.959C126.135 173.356 110.453 180.076 110.453 180.076Z" fill="#E5C9C3"/>
<path opacity="0.65" d="M114.21 209.677C114.912 210.032 115.66 210.441 116.447 210.557C117.133 210.657 117.835 210.672 118.529 210.773C119.686 210.935 120.658 211.444 121.36 212.4C122.031 213.318 122.278 214.429 122.348 215.548C122.425 216.713 122.34 217.886 122.494 219.043C122.664 220.323 123.297 221.319 124.222 222.19C125.017 222.939 125.896 223.587 126.66 224.366C127.47 206.846 128.565 179.397 127.585 176.959C126.135 173.349 110.445 180.076 110.445 180.076C110.067 181.526 110.461 194.387 110.977 207.787C112.042 208.451 113.099 209.106 114.21 209.677Z" fill="#E5C9C3"/>
<path opacity="0.65" d="M114.773 207.748C113.909 209.045 114.534 192.967 115.128 191.494C115.729 190.02 116.277 205.488 114.773 207.748Z" fill="#E5C9C3"/>
<path opacity="0.65" d="M121.53 217.492C121.499 217.184 120.566 204.94 122.132 201.947C123.705 198.954 121.53 217.492 121.53 217.492Z" fill="#E5C9C3"/>
<path opacity="0.65" d="M115.807 230.198C115.807 230.198 115.267 219.321 115.544 215.579C115.552 215.587 116.925 226.811 115.807 230.198Z" fill="#E5C9C3"/>
<path opacity="0.65" d="M122 236.941C122 236.941 123.111 223.664 123.836 218.51C123.829 218.518 123.929 234.534 122 236.941Z" fill="#E5C9C3"/>
<path d="M148.312 195.775C150.102 198.46 167.204 256.39 167.204 256.39H152.972C152.972 256.39 130.91 202.341 131.103 198.46C131.288 194.58 148.312 195.775 148.312 195.775Z" fill="#E5C9C3"/>
<path opacity="0.65" d="M149.045 208.844C146.901 209.893 144.525 210.333 142.164 210.557C140.506 210.711 138.462 210.796 137.528 212.424C136.641 213.974 137.189 216.088 138.161 217.461C139.148 218.865 140.583 219.891 141.516 221.334C142.311 222.561 142.434 223.841 142.257 225.245C142.126 226.295 141.956 227.336 141.771 228.385C136.348 214.545 131.01 200.389 131.103 198.468C131.288 194.587 148.312 195.783 148.312 195.783C148.767 196.47 150.21 200.72 152.115 206.676C151.213 207.548 150.195 208.289 149.045 208.844Z" fill="#E5C9C3"/>
<path opacity="0.65" d="M153.319 223.332C154.561 224.273 148.69 209.291 147.641 208.096C146.592 206.908 151.151 221.689 153.319 223.332Z" fill="#E5C9C3"/>
<path opacity="0.65" d="M150.133 234.758C150.056 234.457 146.924 222.584 144.456 220.269C141.995 217.955 150.133 234.758 150.133 234.758Z" fill="#E5C9C3"/>
<path opacity="0.65" d="M159.713 244.879C159.713 244.879 156.651 234.426 155.162 230.985C155.154 230.985 157.546 242.04 159.713 244.879Z" fill="#E5C9C3"/>
<path opacity="0.65" d="M156.08 253.281C156.08 253.281 150.673 241.107 148.297 236.478C148.297 236.478 153.465 251.637 156.08 253.281Z" fill="#E5C9C3"/>
<path d="M193.169 253.188C193.169 253.188 192.737 246.63 193.678 246.26C194.627 245.89 196.879 245.859 197.334 246.337C197.797 246.808 196.37 253.659 195.468 254.492C194.565 255.317 193.508 254.939 193.169 253.188Z" fill="#EFD9D3"/>
<path d="M186.265 257.014C186.265 257.014 186.103 257.956 186.89 258.48C188.849 259.776 195.884 259.452 196.3 258.858C196.717 258.264 196.686 257.439 196.686 257.439L186.265 257.014Z" fill="#21267F"/>
<path d="M193.847 250.951C193.847 250.951 195.629 251.205 196.47 251.005C197.234 250.82 197.11 257.462 196.401 258.179C195.691 258.889 191.379 257.747 191.379 257.747C191.379 257.747 192.135 256.243 192.683 254.461C193.238 252.663 192.15 251.097 193.847 250.951Z" fill="#3339AE"/>
<path d="M191.811 253.288C191.811 253.288 190.646 250.187 191.927 250.079C193.207 249.971 193.547 250.225 194.195 250.727C194.843 251.236 193.416 253.35 193.246 253.674C193.084 253.998 191.811 253.288 191.811 253.288Z" fill="#21267F"/>
<path d="M189.736 255.001C189.736 255.001 191.294 255.309 191.78 256.212C192.274 257.122 194.194 254.592 193.84 253.597C193.485 252.602 191.448 253.026 191.448 253.026C191.448 253.026 191.61 254.908 189.736 255.001Z" fill="#21267F"/>
<path d="M186.365 257.616C187.399 258.673 191.302 259.321 192.22 258.457C193.138 257.593 192.613 253.99 188.957 254.376C187.445 254.546 185.64 256.876 186.365 257.616Z" fill="#4681DB"/>
<path opacity="0.2" d="M189.59 254.646C189.096 254.623 188.695 254.692 188.363 254.831C188.456 255.016 188.564 255.201 188.672 255.371C189.058 255.194 189.567 255.078 190.153 255.217C191.503 255.533 191.534 255.587 191.534 255.587C191.534 255.587 190.755 254.708 189.59 254.646Z" fill="white"/>
<path opacity="0.2" d="M187.869 255.294C187.761 255.441 187.8 255.641 187.962 255.726C188.062 255.78 188.186 255.765 188.271 255.688C188.34 255.626 188.44 255.549 188.564 255.464C188.448 255.286 188.348 255.109 188.255 254.924C188.109 255.032 187.977 255.155 187.869 255.294Z" fill="white"/>
<path d="M214.559 138.239L192.15 138.895C192.15 138.895 194.827 222.638 192.613 249.3L197.311 249.624C197.311 249.624 226.747 147.25 214.559 138.239Z" fill="#21267F"/>
<path opacity="0.25" d="M195.676 149.541C197.165 149.927 198.7 149.611 200.165 150.166C201.122 150.529 201.986 151.107 202.68 151.863C205.249 154.672 205.233 159.154 204.809 162.703C204.539 164.971 203.775 167.27 204.161 169.561C204.585 172.114 206.413 174.113 207.833 176.165C208.974 177.823 209.738 179.613 209.931 181.627C210.078 183.146 210.07 184.674 210.178 186.201C210.286 187.675 210.44 189.28 211.157 190.599C211.335 190.915 211.543 191.177 211.775 191.378C216.927 166.598 220.206 142.405 214.567 138.232L192.158 138.887C192.158 138.887 192.258 142.081 192.405 147.412C193.315 148.4 194.372 149.202 195.676 149.541Z" fill="#21267F"/>
<path d="M233.882 252.008C233.882 252.008 231.792 245.651 232.671 245.134C233.55 244.617 235.679 244.27 236.212 244.663C236.744 245.057 237.122 251.969 236.358 252.933C235.595 253.89 234.499 253.682 233.882 252.008Z" fill="#EFD9D3"/>
<path d="M228.05 257.369C228.05 257.369 228.104 258.326 228.991 258.65C231.198 259.46 237.97 257.524 238.233 256.845C238.495 256.166 238.287 255.371 238.287 255.371L228.05 257.369Z" fill="#21267F"/>
<path d="M234.037 249.724C234.037 249.724 235.826 249.562 236.598 249.169C237.3 248.814 238.711 255.302 238.187 256.158C237.662 257.014 233.196 256.891 233.196 256.891C233.196 256.891 233.582 255.256 233.713 253.389C233.836 251.529 232.417 250.256 234.037 249.724Z" fill="#3339AE"/>
<path d="M232.594 252.471C232.594 252.471 230.751 249.724 231.969 249.323C233.188 248.922 233.574 249.091 234.33 249.431C235.078 249.77 234.175 252.162 234.091 252.517C233.99 252.864 232.594 252.471 232.594 252.471Z" fill="#21267F"/>
<path d="M230.966 254.607C230.966 254.607 232.548 254.546 233.234 255.317C233.921 256.089 235.209 253.188 234.63 252.301C234.06 251.414 232.17 252.301 232.17 252.301C232.17 252.301 232.771 254.091 230.966 254.607Z" fill="#21267F"/>
<path d="M228.29 257.932C229.539 258.719 233.489 258.449 234.183 257.4C234.877 256.351 233.535 252.964 230.064 254.183C228.629 254.692 227.418 257.385 228.29 257.932Z" fill="#4681DB"/>
<path opacity="0.2" d="M230.743 254.299C230.257 254.384 229.879 254.553 229.593 254.762C229.732 254.924 229.871 255.07 230.025 255.217C230.357 254.955 230.827 254.723 231.429 254.723C232.818 254.723 232.864 254.769 232.864 254.769C232.864 254.769 231.884 254.091 230.743 254.299Z" fill="white"/>
<path opacity="0.2" d="M229.215 255.333C229.138 255.495 229.231 255.688 229.408 255.726C229.516 255.749 229.632 255.711 229.701 255.618C229.755 255.541 229.832 255.441 229.933 255.333C229.786 255.186 229.64 255.039 229.509 254.877C229.385 255.016 229.293 255.171 229.215 255.333Z" fill="white"/>
<path d="M228.197 135.269L206.544 141.078C206.544 141.078 227.974 221.774 231.977 248.227L237.068 247.711C237.06 247.703 242.128 141.225 228.197 135.269Z" fill="#21267F"/>
<path d="M218.192 151.863C218.192 151.863 227.217 157.04 229.323 159.732C231.437 162.417 217.899 155.15 218.192 151.863Z" fill="#3339AE"/>
<path opacity="0.1" d="M212.623 159.964C213.495 157.927 214.945 156.43 217.105 155.813C218.848 155.312 220.738 155.266 222.535 155.458C224.448 155.659 226.361 156.153 228.066 157.071C229.671 157.935 230.951 159.2 231.614 160.913C232.432 163.011 232.185 165.148 231.915 167.324C231.792 168.342 231.684 169.376 231.838 170.402C232.016 171.598 232.548 172.67 233.312 173.603C234.415 174.938 235.826 176.08 237.323 177.036C236.274 155.906 233.744 137.645 228.197 135.285L206.544 141.094C206.544 141.094 208.797 149.572 211.975 161.923C212.145 161.244 212.353 160.589 212.623 159.964Z" fill="#21267F"/>
<path d="M41.3213 57.9295C76.5736 51.6806 181.629 50.292 186.542 59.0636C198.954 81.2278 184.784 194.603 184.815 199.293C184.815 199.293 54.5968 204.817 51.0253 201.847C47.4461 198.877 31.6172 69.8641 41.3213 57.9295Z" fill="#EBF1F8"/>
<path d="M44.6769 149.896C50.3157 148.515 57.7982 137.584 49.5212 104.017C49.1355 102.443 50.7323 101.039 51.8354 99.8433C53.0542 98.5164 54.3578 97.2435 55.5303 95.878C56.4714 94.7825 57.3354 93.5945 57.7442 92.2135C58.7316 88.8345 56.7337 85.278 54.8361 82.5393C52.8459 79.6617 50.4083 76.9076 49.3129 73.5749C48.3564 70.6587 48.6727 67.4957 50.6474 65.0347C52.5373 62.6817 55.3915 61.1697 58.1839 59.9816C61.686 58.4927 65.4118 57.4512 69.1067 56.4714C72.3928 55.5997 75.7329 54.8205 79.0962 54.1879C63.8382 55.0596 50.308 56.3403 41.3137 57.9295C35.644 64.9036 38.6909 111.84 42.9181 150.259C43.5121 150.143 44.0984 150.035 44.6769 149.896Z" fill="#E2E9F2"/>
<path d="M189.042 66.0762C188.811 66.7474 188.494 67.3877 188.024 67.9586C187.97 68.0203 187.916 68.0589 187.846 68.082C187.808 68.8921 187.746 69.7021 187.63 70.5044C187.206 73.4823 186.088 76.3213 184.051 78.6434C181.721 81.305 178.613 82.8788 175.712 84.8769C173.113 86.6667 171.022 88.7419 169.958 91.6735C168.546 95.5385 168.184 99.7739 169.132 103.77C170.12 107.921 172.419 111.67 174.578 115.342C176.461 118.528 179.577 120.827 181.644 123.89C183.557 126.721 183.866 129.838 182.724 133.001C181.799 135.57 179.97 137.715 177.795 139.435C173.244 143.046 167.405 144.943 163.069 148.832C160.732 150.93 159.197 153.63 159.529 156.762C159.891 160.218 161.843 163.358 163.416 166.421C164.998 169.499 166.548 172.816 166.371 176.327C166.232 178.988 165.075 181.457 163.177 183.401C161.403 185.214 159.158 186.525 156.929 187.767C154.808 188.948 152.555 190.066 150.789 191.733C147.966 194.387 148.344 197.604 149.709 200.659C169.734 199.934 184.807 199.293 184.807 199.293C184.784 194.981 196.771 98.7556 189.042 66.0762Z" fill="#E2E9F2"/>
<path d="M64.92 143.64C64.1733 143.64 63.48 143.467 62.84 143.12C62.2267 142.773 61.6933 142.307 61.24 141.72C60.84 141.16 60.48 140.453 60.16 139.6C59.84 138.72 59.6 137.813 59.44 136.88C59.12 135.307 58.9067 133.24 58.8 130.68C58.7733 130.067 58.76 129.013 58.76 127.52V125C58.7867 124.28 58.8 123.533 58.8 122.76C58.8 121.187 58.8933 119.947 59.08 119.04C59 118.64 58.96 118.227 58.96 117.8C58.96 116.2 59.56 114.907 60.76 113.92C61.96 112.933 63.48 112.44 65.32 112.44C66.0133 112.44 66.6533 112.627 67.24 113C67.8267 113.373 68.12 113.84 68.12 114.4C68.12 114.667 68.0133 114.88 67.8 115.04C67.5867 115.2 67.32 115.28 67 115.28C66.7333 115.28 66.44 115.24 66.12 115.16C65.8267 115.08 65.64 114.96 65.56 114.8H65.04V114.72C64.0533 114.72 63.2267 114.933 62.56 115.36C62.08 115.707 61.7067 116.28 61.44 117.08C61.3333 117.373 61.2533 117.747 61.2 118.2C61.1467 118.653 61.12 119.067 61.12 119.44C61.0933 119.653 61.08 120.08 61.08 120.72L61.16 122.12L61.2 123.48C61.2 123.88 61.1467 124.347 61.04 124.88C60.9067 125.547 60.84 126.013 60.84 126.28V127.24C60.84 128.28 60.88 129.707 60.96 131.52C60.9867 133.04 61.16 134.56 61.48 136.08C61.72 137.493 62.1733 138.693 62.84 139.68C63.48 140.693 64.3467 141.2 65.44 141.2C65.8933 141.2 66.4533 140.96 67.12 140.48C67.84 140 68.3467 139.76 68.64 139.76C69.0133 139.76 69.4 139.96 69.8 140.36C69.8 141.347 69.4267 142.107 68.68 142.64C67.9867 143.12 67.16 143.427 66.2 143.56C65.6667 143.613 65.24 143.64 64.92 143.64ZM77.5966 143.76C76.9032 143.76 76.2632 143.533 75.6766 143.08C75.0899 142.653 74.6099 142.067 74.2366 141.32C73.4632 139.693 72.9832 137.92 72.7966 136C72.5566 134.187 72.4366 132.44 72.4366 130.76C72.4366 130.44 72.4499 130.173 72.4766 129.96V129.24C72.4766 129.107 72.4632 129.04 72.4366 129.04V128.32L72.4766 125.52C72.5032 124.667 72.6099 123.307 72.7966 121.44C72.9299 120.16 73.2366 118.92 73.7166 117.72C73.9032 117.187 74.1432 116.787 74.4366 116.52C74.7299 116.227 75.0632 116.08 75.4366 116.08C76.5032 116.08 77.4632 116.28 78.3166 116.68C79.1699 117.053 79.8899 117.587 80.4766 118.28C81.0099 118.947 81.4632 119.773 81.8366 120.76C82.2099 121.72 82.4766 122.747 82.6366 123.84C82.7966 124.96 82.8766 126.147 82.8766 127.4V127.72C82.8766 128.547 82.8899 129.293 82.9166 129.96L82.9566 132.24C82.9566 139.92 81.1699 143.76 77.5966 143.76ZM77.4366 142.08C77.9166 142.08 78.3566 141.893 78.7566 141.52C79.1566 141.12 79.4632 140.587 79.6766 139.92C80.1832 138.56 80.4899 137.093 80.5966 135.52C80.7299 134.16 80.7966 132.987 80.7966 132C80.7966 130.8 80.7032 129.227 80.5166 127.28C80.3566 125.227 80.2766 123.693 80.2766 122.68V121.96C80.2232 120.947 79.8766 120.067 79.2366 119.32C78.6232 118.573 77.8632 118.2 76.9566 118.2C76.0499 118.2 75.4499 118.72 75.1566 119.76C74.8899 120.587 74.7566 121.653 74.7566 122.96C74.7566 123.467 74.7699 123.893 74.7966 124.24V125.32L74.7166 127.16C74.6632 127.72 74.6366 128.333 74.6366 129C74.6366 130.44 74.6766 131.867 74.7566 133.28C74.8632 135.28 75.1299 137.227 75.5566 139.12C75.9832 141.093 76.6099 142.08 77.4366 142.08ZM103.451 145.08C102.624 145.08 102.211 144.253 102.211 142.6V140.04V137.48C102.211 136.147 102.117 134.4 101.931 132.24C101.717 129.813 101.611 128.147 101.611 127.24L101.691 124.76C101.744 124.04 101.771 123.227 101.771 122.32C101.664 122.667 101.224 124.507 100.451 127.84C99.6773 131.067 98.8773 134.053 98.0506 136.8C97.2506 139.44 96.5973 140.76 96.0906 140.76C95.584 140.76 95.1706 140.613 94.8506 140.32C94.5573 140 94.4106 139.573 94.4106 139.04C94.4106 137.867 93.9306 135.373 92.9706 131.56C92.0373 127.747 91.184 124.627 90.4106 122.2L90.1706 126.72C89.9573 130.533 89.8106 133.707 89.7306 136.24C89.6773 138.693 89.6506 140.373 89.6506 141.28C89.6506 141.493 89.664 141.693 89.6906 141.88V142.44C89.6906 142.893 89.5973 143.227 89.4106 143.44C89.224 143.68 88.8773 143.8 88.3706 143.8C88.104 143.8 87.8506 143.693 87.6106 143.48C87.3706 143.293 87.2506 143.08 87.2506 142.84C87.2506 140.12 87.4506 136.04 87.8506 130.6C88.2506 125.16 88.4506 121.08 88.4506 118.36C88.2906 118.12 88.2106 117.867 88.2106 117.6C88.2106 117.28 88.3573 117.04 88.6506 116.88C88.9706 116.693 89.344 116.6 89.7706 116.6C90.1173 116.6 90.7573 117.853 91.6906 120.36C92.624 122.867 93.5573 125.707 94.4906 128.88C95.424 132.053 96.024 134.347 96.2906 135.76C96.504 135.04 96.6773 134.373 96.8106 133.76L97.0506 132.8C97.904 129.067 98.7573 125.693 99.6106 122.68C100.117 120.84 100.611 119.4 101.091 118.36C101.571 117.24 102.011 116.68 102.411 116.68C102.784 116.68 103.117 116.787 103.411 117C103.731 117.187 103.891 117.44 103.891 117.76C103.891 119.68 103.971 122.56 104.131 126.4C104.317 129.973 104.411 132.747 104.411 134.72L104.371 136.84L104.291 138.96C104.291 139.28 104.331 139.76 104.411 140.4L104.531 141.8C104.557 142.04 104.571 142.227 104.571 142.36C104.597 142.493 104.611 142.573 104.611 142.6C104.744 142.947 104.811 143.2 104.811 143.36C104.811 143.813 104.677 144.213 104.411 144.56C104.144 144.907 103.824 145.08 103.451 145.08ZM110.633 143.28C110.286 141.867 110.113 139.907 110.113 137.4L110.193 133.84C110.246 132.773 110.273 131.587 110.273 130.28C110.113 129.907 110.033 129.573 110.033 129.28V129.16C110.299 128.653 110.433 127.507 110.433 125.72L110.473 123.88C110.499 123.293 110.513 122.64 110.513 121.92C110.513 120.347 110.406 119.107 110.193 118.2C110.273 117.827 110.406 117.507 110.593 117.24C110.779 116.947 111.006 116.8 111.273 116.8H113.033C113.779 116.8 114.433 116.973 114.993 117.32C115.553 117.64 115.979 118.107 116.273 118.72C116.806 119.813 117.073 121.107 117.073 122.6C117.073 123.667 117.059 124.507 117.033 125.12C116.979 125.893 116.846 126.6 116.633 127.24C116.553 127.587 116.433 127.88 116.273 128.12C116.139 128.333 115.939 128.6 115.673 128.92C115.299 129.373 114.686 129.8 113.833 130.2C113.486 130.387 113.033 130.56 112.473 130.72V135L112.553 137.56L112.633 138.8C112.739 140.293 112.793 141.56 112.793 142.6C112.793 142.92 112.659 143.187 112.393 143.4C112.126 143.64 111.819 143.76 111.473 143.76L110.633 143.28ZM112.513 129.08C114.086 128.84 114.873 126.587 114.873 122.32C114.873 121.547 114.833 120.947 114.753 120.52C114.673 120.2 114.566 119.947 114.433 119.76C114.299 119.547 114.099 119.373 113.833 119.24C113.539 119.08 113.219 119 112.873 119C112.873 118.973 112.726 118.96 112.433 118.96V121.24C112.433 122.813 112.446 124.213 112.473 125.44C112.473 126.827 112.486 127.733 112.513 128.16V129V129.08ZM127.163 143.64C126.203 143.32 125.016 143.16 123.603 143.16C123.176 143.427 122.723 143.56 122.243 143.56C121.923 143.56 121.643 143.413 121.403 143.12C121.189 142.853 121.083 142.56 121.083 142.24C121.083 140 121.176 137.013 121.363 133.28C121.523 129.307 121.603 126.333 121.603 124.36V124.08C121.443 122.4 121.363 121.147 121.363 120.32C121.363 117.787 121.829 116.52 122.763 116.52C123.029 116.52 123.256 116.627 123.443 116.84C123.656 117.027 123.763 117.253 123.763 117.52C123.763 117.84 123.723 118.347 123.643 119.04C123.563 119.707 123.523 120.213 123.523 120.56C123.523 122.347 123.536 123.96 123.562 125.4C123.589 126.813 123.603 128.413 123.603 130.2C123.469 130.6 123.403 131.16 123.403 131.88V132.36L123.323 135.52C123.269 136.453 123.243 137.52 123.243 138.72C123.243 140.56 123.683 141.48 124.563 141.48C124.616 141.48 124.696 141.48 124.803 141.48C124.936 141.453 125.109 141.44 125.323 141.44C125.563 141.413 125.869 141.4 126.243 141.4C127.683 141.4 128.403 141.8 128.403 142.6C128.403 142.867 128.283 143.093 128.043 143.28C127.803 143.467 127.509 143.587 127.163 143.64ZM133.546 143.52C133.199 143.52 132.879 143.4 132.586 143.16C132.319 142.92 132.172 142.627 132.146 142.28V141.24V140.44C132.119 140.2 132.106 139.92 132.106 139.6C132.106 139.04 132.066 138.187 131.986 137.04L131.906 134.48C131.906 133.173 131.946 131.227 132.026 128.64C132.132 126.32 132.186 124.373 132.186 122.8C132.186 122.427 132.146 121.867 132.066 121.12C131.986 120.347 131.946 119.787 131.946 119.44C131.946 117.547 132.506 116.6 133.626 116.6C134.506 116.6 135.519 116.773 136.666 117.12C137.839 117.467 138.426 117.88 138.426 118.36C138.426 118.627 138.306 118.88 138.066 119.12C137.852 119.333 137.586 119.507 137.266 119.64C136.146 119.24 135.132 118.973 134.226 118.84C134.252 119.24 134.266 119.813 134.266 120.56C134.266 121.627 134.252 122.587 134.226 123.44C134.146 124.72 134.106 125.68 134.106 126.32L134.226 126.96L134.866 126.92C135.079 126.893 135.346 126.88 135.666 126.88C136.946 126.88 137.586 127.253 137.586 128C137.586 128.293 137.466 128.547 137.226 128.76C136.986 128.947 136.679 129.04 136.306 129.04C135.826 129.04 135.452 129.013 135.186 128.96H134.186C134.239 129.653 134.266 130.667 134.266 132C134.266 133.333 134.252 134.533 134.226 135.6C134.146 137.227 134.106 138.44 134.106 139.24C134.106 140.733 134.132 141.48 134.186 141.48L135.506 141.44C135.959 141.413 136.506 141.4 137.146 141.4C138.159 141.4 138.666 141.72 138.666 142.36C138.666 142.733 138.492 143.013 138.146 143.2C137.826 143.413 137.426 143.52 136.946 143.52H133.546ZM145.313 142.36L145.273 140.8C145.246 140.347 145.233 139.84 145.233 139.28L145.273 137.92C145.193 137.627 144.993 134.707 144.673 129.16C144.353 123.613 144.166 120.053 144.113 118.48C142.566 118.427 141.579 118.267 141.153 118C140.859 117.787 140.713 117.547 140.713 117.28C140.713 117.067 140.846 116.88 141.113 116.72C141.406 116.533 141.699 116.44 141.993 116.44C142.739 116.44 143.646 116.493 144.713 116.6C145.726 116.733 146.633 116.8 147.433 116.8H147.753H148.073C148.899 116.8 149.313 117.12 149.313 117.76C149.313 118.08 149.179 118.347 148.913 118.56C148.646 118.747 148.339 118.84 147.993 118.84C147.753 118.84 147.406 118.8 146.953 118.72L146.153 118.56L146.113 118.76L146.073 118.96C146.073 121.333 146.299 125.12 146.753 130.32C147.179 135.2 147.393 138.987 147.393 141.68C147.393 142 147.246 142.28 146.953 142.52C146.686 142.76 146.379 142.88 146.033 142.88L145.313 142.36ZM155.147 143.52C154.801 143.52 154.481 143.4 154.187 143.16C153.921 142.92 153.774 142.627 153.747 142.28V141.24V140.44C153.721 140.2 153.707 139.92 153.707 139.6C153.707 139.04 153.667 138.187 153.587 137.04L153.507 134.48C153.507 133.173 153.547 131.227 153.627 128.64C153.734 126.32 153.787 124.373 153.787 122.8C153.787 122.427 153.747 121.867 153.667 121.12C153.587 120.347 153.547 119.787 153.547 119.44C153.547 117.547 154.107 116.6 155.227 116.6C156.107 116.6 157.121 116.773 158.267 117.12C159.441 117.467 160.027 117.88 160.027 118.36C160.027 118.627 159.907 118.88 159.667 119.12C159.454 119.333 159.187 119.507 158.867 119.64C157.747 119.24 156.734 118.973 155.827 118.84C155.854 119.24 155.867 119.813 155.867 120.56C155.867 121.627 155.854 122.587 155.827 123.44C155.747 124.72 155.707 125.68 155.707 126.32L155.827 126.96L156.467 126.92C156.681 126.893 156.947 126.88 157.267 126.88C158.547 126.88 159.187 127.253 159.187 128C159.187 128.293 159.067 128.547 158.827 128.76C158.587 128.947 158.281 129.04 157.907 129.04C157.427 129.04 157.054 129.013 156.787 128.96H155.787C155.841 129.653 155.867 130.667 155.867 132C155.867 133.333 155.854 134.533 155.827 135.6C155.747 137.227 155.707 138.44 155.707 139.24C155.707 140.733 155.734 141.48 155.787 141.48L157.107 141.44C157.561 141.413 158.107 141.4 158.747 141.4C159.761 141.4 160.267 141.72 160.267 142.36C160.267 142.733 160.094 143.013 159.747 143.2C159.427 143.413 159.027 143.52 158.547 143.52H155.147ZM165.954 143.24C165.261 143.24 164.914 141.493 164.914 138L164.994 131.68C165.021 129.813 165.034 127.72 165.034 125.4C165.034 124.547 164.954 123.227 164.794 121.44C164.661 119.493 164.594 118.307 164.594 117.88C164.594 117.533 164.741 117.227 165.034 116.96C165.328 116.693 165.648 116.56 165.994 116.56C166.928 116.56 167.821 116.773 168.674 117.2C169.554 117.6 170.328 118.173 170.994 118.92C172.408 120.547 173.341 122.333 173.794 124.28C174.034 125.267 174.154 126.24 174.154 127.2C174.154 127.547 174.141 127.867 174.114 128.16L174.074 129.24V131.44C174.074 133.147 174.021 134.493 173.914 135.48C173.754 136.813 173.448 138 172.994 139.04C172.461 140.16 171.688 141.16 170.674 142.04C170.194 142.44 169.581 142.84 168.834 143.24H165.954ZM167.714 141.2C168.248 141.2 168.741 141.067 169.194 140.8C169.648 140.507 170.034 140.12 170.354 139.64C170.621 139.213 170.861 138.68 171.074 138.04C171.314 137.373 171.488 136.733 171.594 136.12C171.834 134.92 171.981 133.693 172.034 132.44C172.061 132.12 172.074 131.653 172.074 131.04C172.074 122.987 170.514 118.787 167.394 118.44C167.208 119.64 167.114 121.027 167.114 122.6C167.114 124.28 167.221 127.213 167.434 131.4C167.621 135.107 167.714 138.053 167.714 140.24V141.2Z" fill="#81B2FF"/>
<path d="M39.9789 228.547C39.9172 228.401 33.9313 213.72 33.4916 209.183L33.291 209.199C33.7307 213.766 39.7321 228.47 39.7938 228.624L39.9789 228.547Z" fill="#EBF1F8"/>
<path d="M33.4841 209.654C33.4841 209.654 34.4638 204.94 32.8747 204.763C31.2934 204.586 33.4841 209.654 33.4841 209.654Z" fill="#EBF1F8"/>
<path d="M33.9159 211.266C33.9159 211.266 31.0771 208.265 30.9074 209.153C30.7377 210.032 33.9159 211.266 33.9159 211.266Z" fill="#EBF1F8"/>
<path d="M34.6333 213.967C34.6333 213.967 32.2882 211.128 31.5323 211.776C30.7763 212.424 34.6333 213.967 34.6333 213.967Z" fill="#EBF1F8"/>
<path d="M35.5356 217.13C35.5356 217.13 32.612 213.743 31.7866 214.576C30.9613 215.401 35.5356 217.13 35.5356 217.13Z" fill="#EBF1F8"/>
<path d="M36.4303 220.215C36.4303 220.215 32.3651 215.911 31.6554 216.983C30.9381 218.055 36.4303 220.215 36.4303 220.215Z" fill="#EBF1F8"/>
<path d="M37.95 223.872C37.95 223.872 32.6737 219.22 32.2032 220.092C31.7326 220.971 37.95 223.872 37.95 223.872Z" fill="#EBF1F8"/>
<path d="M39.3156 227.336C39.3156 227.336 33.8233 223.139 33.0673 224.173C32.3114 225.215 39.3156 227.336 39.3156 227.336Z" fill="#EBF1F8"/>
<path d="M39.3848 227.159C39.3848 227.159 39.8013 221.681 40.727 222.584C41.6449 223.479 39.3848 227.159 39.3848 227.159Z" fill="#EBF1F8"/>
<path d="M37.9502 223.872C37.9502 223.872 38.4902 218.726 39.6318 219.259C40.7735 219.791 37.9502 223.872 37.9502 223.872Z" fill="#EBF1F8"/>
<path d="M36.6772 220.1C36.6772 220.1 37.3638 215.942 38.3203 216.32C39.2768 216.69 36.6772 220.1 36.6772 220.1Z" fill="#EBF1F8"/>
<path d="M35.5356 217.13C35.5356 217.13 36.7699 212.393 37.5952 213.218C38.4283 214.044 35.5356 217.13 35.5356 217.13Z" fill="#EBF1F8"/>
<path d="M34.6333 213.967C34.6333 213.967 35.6438 209.993 36.4075 210.603C37.1712 211.22 34.6333 213.967 34.6333 213.967Z" fill="#EBF1F8"/>
<path d="M33.9697 211.776C33.9697 211.776 35.0497 208.011 35.9599 208.435C36.8779 208.859 33.9697 211.776 33.9697 211.776Z" fill="#EBF1F8"/>
<path d="M4.96605 192.327C4.93519 192.25 4.95833 192.149 5.02776 192.095C5.12032 192.018 5.25146 192.034 5.32088 192.126C5.35945 192.173 9.50951 196.987 19.4835 190.83C23.0396 188.632 25.7086 186.271 28.0614 184.18C32.4043 180.323 35.2815 177.769 39.4085 180.685C39.501 180.755 39.5242 180.886 39.4625 180.979C39.393 181.071 39.2619 181.094 39.1693 181.033C35.3124 178.309 32.6897 180.639 28.3391 184.504C26.0943 186.502 23.2942 188.986 19.7072 191.201C9.40152 197.557 5.04318 192.458 4.9969 192.404C4.98919 192.373 4.97376 192.35 4.96605 192.327Z" fill="#EBF1F8"/>
<path d="M42.5014 225.87C42.5014 225.87 38.9068 215.471 43.4656 213.319C48.0245 211.166 46.1269 222.352 42.5014 225.87Z" fill="#EBF1F8"/>
<path d="M259.107 222.044C259.107 222.044 255.512 211.644 260.071 209.492C264.622 207.347 262.732 218.526 259.107 222.044Z" fill="#EBF1F8"/>
<path d="M40.897 229.28C40.897 229.28 44.1523 224.752 37.7035 220.617C37.6958 220.624 34.5717 227.313 40.897 229.28Z" fill="#EBF1F8"/>
<g opacity="0.52">
<path opacity="0.52" d="M37.7729 221.025L38.4055 223.209C38.6215 223.934 38.8375 224.659 39.0689 225.377C39.1846 225.739 39.3003 226.094 39.4314 226.449C39.5549 226.804 39.686 227.159 39.8248 227.506C39.9637 227.853 40.118 228.2 40.2877 228.532C40.4574 228.864 40.6579 229.195 40.9279 229.458C40.7814 229.342 40.6348 229.211 40.5268 229.056C40.4034 228.91 40.3031 228.748 40.1951 228.586C39.9945 228.262 39.8248 227.915 39.6706 227.568C39.3543 226.873 39.0997 226.156 38.8606 225.431C38.6292 224.705 38.4209 223.972 38.2435 223.24C38.0584 222.522 37.9041 221.774 37.7729 221.025Z" fill="#81B3FF"/>
</g>
<path d="M257.016 225.809C257.016 225.809 259.593 211.583 239.884 209.099C239.884 209.099 240.015 228.239 257.016 225.809Z" fill="#EBF1F8"/>
<g opacity="0.52">
<path opacity="0.52" d="M240.516 209.955L244.435 214.36C245.746 215.818 247.057 217.276 248.407 218.696C249.079 219.413 249.757 220.115 250.444 220.809C251.13 221.504 251.832 222.19 252.55 222.846C253.275 223.502 254.008 224.15 254.787 224.736C255.558 225.33 256.384 225.87 257.317 226.187C256.839 226.086 256.36 225.924 255.921 225.693C255.473 225.477 255.049 225.222 254.632 224.96C253.807 224.42 253.02 223.81 252.264 223.17C250.752 221.897 249.356 220.501 247.999 219.074C246.649 217.639 245.353 216.157 244.103 214.63C242.846 213.133 241.65 211.567 240.516 209.955Z" fill="#81B3FF"/>
</g>
<path d="M247.343 168.465H244.52V165.95H242.005V163.127H244.52V160.612H247.343V163.127H249.858V165.95H247.343V168.465ZM244.798 168.188H247.073V165.673H249.588V163.397H247.073V160.882H244.798V163.397H242.283V165.673H244.798V168.188Z" fill="#E2E9F2"/>
<path d="M28.2772 164.384L26.2793 162.386L28.0535 160.612L26.2793 158.837L28.2772 156.839L30.0514 158.614L31.8256 156.839L33.8235 158.837L32.0493 160.612L33.8235 162.386L31.8256 164.384L30.0514 162.61L28.2772 164.384ZM26.665 162.386L28.2695 163.991L30.0437 162.216L31.8179 163.991L33.4223 162.386L31.6481 160.612L33.4223 158.837L31.8179 157.233L30.0437 159.007L28.2695 157.233L26.665 158.837L28.4392 160.612L26.665 162.386Z" fill="#E2E9F2"/>
<path d="M231.298 143.076C227.92 146.455 198.267 146.764 192.69 143.879C187.113 140.993 192.667 78.1034 216.588 76.167C236.304 74.5778 231.298 143.076 231.298 143.076Z" fill="#EBF1F8"/>
<path d="M205.04 88.0167C205.935 88.765 210.949 90.9406 214.374 89.8837C217.799 88.8268 220.345 88.8962 221.695 89.0891C223.037 89.2819 222.288 97.7989 222.288 97.7989C222.288 97.7989 216.318 99.8125 211.458 97.7989C206.606 95.7854 202.348 96.0786 202.271 95.8548C202.209 95.6311 205.04 88.0167 205.04 88.0167Z" fill="#21267F"/>
<path d="M197.905 105.66C199.132 106.409 206.012 108.584 210.718 107.527C215.423 106.47 218.918 106.54 220.761 106.733C222.605 106.925 221.579 115.442 221.579 115.442C221.579 115.442 213.379 117.456 206.714 115.442C200.05 113.429 194.21 113.722 194.11 113.498C194.01 113.275 197.905 105.66 197.905 105.66Z" fill="#21267F"/>
<path d="M198.013 121.992C199.393 122.741 207.123 124.916 212.414 123.859C217.706 122.802 221.633 122.872 223.708 123.065C225.783 123.257 224.633 131.774 224.633 131.774C224.633 131.774 215.415 133.788 207.925 131.774C200.435 129.761 193.863 130.054 193.747 129.83C193.631 129.607 198.013 121.992 198.013 121.992Z" fill="#21267F"/>
<path d="M188.641 67.1254C188.394 67.9046 187.885 68.7455 187.46 68.8998C187.237 69.0849 186.62 71.5613 186.45 72.3097L182.678 72.1477L183.372 68.5449C183.372 68.5449 183.233 67.7889 183.133 66.4851C183.025 65.1736 182.739 60.1128 183.349 60.2825C183.958 60.4522 184.089 63.2681 184.089 63.2681C184.089 63.2681 184.598 58.755 185.262 58.9864C185.925 59.2179 185.578 63.1523 185.578 63.1523C185.578 63.1523 186.296 58.2304 187.036 58.0761C187.777 57.9218 186.859 63.2526 186.859 63.2526C186.859 63.2526 188.417 58.809 189.08 59.0019C189.751 59.1947 188.162 63.6769 188.031 64.6644C187.946 65.3125 188.378 65.7445 188.857 65.2662C189.343 64.7879 190.692 64.757 190.87 65.2276C191.047 65.7059 188.887 66.3385 188.641 67.1254Z" fill="#EFD9D3"/>
<g opacity="0.5">
<path opacity="0.5" d="M185.57 68.8844C186.049 68.8766 186.519 68.8072 186.982 68.6915C187.229 68.6298 187.476 68.5449 187.699 68.4138C187.159 68.9846 186.473 69.3935 185.647 69.3549C185.185 69.3318 184.629 69.2547 184.251 68.9692C184.112 68.8612 183.989 68.7069 183.889 68.5372C183.974 68.5989 184.066 68.6452 184.166 68.6915C184.591 68.8689 185.115 68.8921 185.57 68.8844Z" fill="#E5C9C3"/>
</g>
<path d="M208.897 79.1911L183.596 93.1933L187.476 70.1187L182.67 69.3086C182.67 69.3086 170.05 91.2415 173.822 104.326C177.595 117.417 197.897 105.652 197.897 105.652L208.897 79.1911Z" fill="#81B3FF"/>
<path opacity="0.3" d="M200.698 83.7351C198.53 86.9984 196.771 90.5395 194.31 93.6022C193.292 94.8751 192.205 96.0092 190.785 96.8346C189.605 97.5135 188.271 98.015 187.306 99.0102C186.172 100.175 186.064 101.811 185.509 103.261C184.923 104.781 183.812 105.853 182.315 106.486C180.665 107.188 178.821 107.327 177.047 107.303C176.399 107.296 175.766 107.226 175.134 107.126C180.904 115.496 197.913 105.653 197.913 105.653L208.913 79.1912L200.698 83.7351Z" fill="#81B3FF"/>
<path d="M210.232 78.2885C210.232 78.2885 211.559 84.7534 206.568 94.0342C201.569 103.323 200.235 110.482 199.918 117.656C198.808 143.045 191.641 145.29 191.641 145.29C191.641 145.29 187.237 145.846 189.026 138.571C189.859 135.169 188.031 90.8017 210.232 78.2885Z" fill="#81B3FF"/>
<path d="M221.178 77.2547C219.064 77.2007 213.935 99.4884 219.504 112.835C225.073 126.181 213.688 138.718 217.815 142.035C221.942 145.352 228.012 149.31 235.703 146.903C243.394 144.496 233.859 138.224 232.787 123.489C231.715 108.754 231.869 99.689 231.869 99.689C231.869 99.689 232.17 77.5325 221.178 77.2547Z" fill="#81B3FF"/>
<path opacity="0.3" d="M232.779 123.489C232.047 113.437 231.885 106.03 231.861 102.335C231.051 100.862 230.419 99.2724 229.902 97.6909C229.162 95.4537 228.622 93.1393 228.359 90.794C227.187 92.9695 226.817 95.6234 227.202 98.0304C227.418 99.365 227.958 100.623 228.359 101.911C228.737 103.122 229.054 104.349 229.108 105.622C229.162 106.956 228.899 108.268 228.375 109.494C228.066 110.212 227.657 110.875 227.318 111.577C226.994 112.249 226.701 112.943 226.439 113.645C225.389 116.399 224.687 119.277 223.291 121.892C222.666 123.072 221.857 124.129 221.101 125.225C220.908 125.495 220.715 125.78 220.53 126.058C220.375 126.868 220.19 127.662 219.99 128.442C221.278 128.542 222.597 128.218 223.878 128.195C225.312 128.172 226.716 128.665 227.95 129.367C230.172 130.625 231.885 132.654 232.733 135.045C233.597 137.46 233.936 140.168 233.358 142.683C232.864 144.835 231.622 146.533 229.702 147.574C231.568 147.736 233.566 147.566 235.687 146.903C243.386 144.496 233.859 138.224 232.779 123.489Z" fill="#81B3FF"/>
<path d="M211.281 78.0957C211.559 76.3907 213.587 74.8478 215.809 74.6626C218.031 74.4698 219.597 75.7041 219.319 77.4091C219.041 79.114 217.012 80.6569 214.791 80.8421C212.569 81.035 210.996 79.8006 211.281 78.0957Z" fill="#EBF1F8"/>
<path d="M212.886 72.4794L212.392 78.4582C212.392 78.4582 216.442 79.7389 218.154 77.1468L217.02 72.2402L212.886 72.4794Z" fill="#EFD9D3"/>
<path opacity="0.5" d="M217.113 72.6414C216.804 74.3386 212.87 75.3029 213.179 76.8227C213.333 77.5942 214.105 78.0571 214.822 78.2885C215.3 78.4428 215.802 78.5123 216.303 78.5277C214.49 79.1217 212.392 78.4582 212.392 78.4582L212.886 72.4794L217.113 72.6414Z" fill="#E5C9C3"/>
<path d="M221.055 64.3018C221.055 64.3018 221.247 73.652 213.495 73.5209C205.735 73.3897 210.155 61.4551 210.155 61.4551C210.155 61.4551 216.403 56.9497 221.055 64.3018Z" fill="#EFD9D3"/>
<path d="M209.545 61.4242C209.545 61.4242 211.559 62.3346 212.199 62.134C212.839 61.9334 213.418 61.1851 213.418 61.1851V62.6432C213.418 62.6432 219.658 65.7059 221.679 64.271C223.7 62.836 213.649 53.0384 209.545 61.4242Z" fill="#21267F"/>
<path d="M220.052 65.6905C220.052 65.6905 221.162 64.8418 221.787 65.4667C222.412 66.0916 220.939 69.5632 219.812 68.5526C218.686 67.5497 220.052 65.6905 220.052 65.6905Z" fill="#EFD9D3"/>
<path d="M220.321 66.2459C220.36 66.2536 220.406 66.2382 220.429 66.1996C220.429 66.1919 220.723 65.7599 221.062 65.7445C221.208 65.7368 221.347 65.8062 221.478 65.9605C221.517 66.0068 221.579 66.0068 221.625 65.9759C221.671 65.9373 221.671 65.8756 221.64 65.8293C221.463 65.621 221.27 65.5285 221.054 65.5439C220.615 65.567 220.275 66.0685 220.26 66.0916C220.229 66.1379 220.244 66.2074 220.291 66.2382C220.291 66.2382 220.306 66.2382 220.321 66.2459Z" fill="#21267F"/>
<path d="M217.684 65.8448C217.684 65.8448 215.801 65.6905 215.616 65.4976C215.431 65.3047 216.033 64.9344 216.858 65.1736C217.684 65.4127 217.9 65.8448 217.684 65.8448Z" fill="#21267F"/>
<path d="M215.948 66.6085C215.894 66.9094 216.064 67.1871 216.318 67.2334C216.573 67.2797 216.82 67.0714 216.874 66.7705C216.928 66.4696 216.758 66.1919 216.503 66.1456C216.434 66.1302 216.365 66.1379 216.295 66.1688C216.38 66.2073 216.434 66.3153 216.411 66.4311C216.388 66.5699 216.272 66.6625 216.156 66.6394C216.071 66.6239 216.01 66.5545 215.994 66.4619C215.971 66.5082 215.956 66.5545 215.948 66.6085Z" fill="#21267F"/>
<path d="M212.793 65.0193C212.793 65.0193 210.911 64.865 210.726 64.6721C210.54 64.4793 211.142 64.1089 211.967 64.3481C212.793 64.5873 213.009 65.0193 212.793 65.0193Z" fill="#21267F"/>
<path d="M211.05 65.783C210.996 66.0839 211.165 66.3616 211.42 66.4079C211.674 66.4542 211.921 66.2459 211.975 65.945C212.029 65.6442 211.86 65.3664 211.605 65.3202C211.536 65.3047 211.466 65.3124 211.397 65.3433C211.482 65.3819 211.536 65.4899 211.512 65.6056C211.489 65.7445 211.374 65.837 211.258 65.8139C211.173 65.7985 211.111 65.729 211.088 65.6365C211.08 65.6827 211.065 65.729 211.05 65.783Z" fill="#21267F"/>
<path d="M213.541 67.8043C213.58 67.812 213.61 67.7966 213.641 67.7657C213.68 67.7194 213.672 67.6577 213.626 67.6191C213.418 67.4494 213.395 67.3568 213.395 67.326C213.402 67.2488 213.549 67.164 213.703 67.0791C213.796 67.0251 213.904 66.9634 214.004 66.8939C214.49 66.5468 214.575 65.3973 214.575 65.3433C214.575 65.2893 214.536 65.2353 214.474 65.2353C214.42 65.2353 214.366 65.2739 214.366 65.3356C214.343 65.6442 214.22 66.4851 213.88 66.7242C213.788 66.7937 213.688 66.8477 213.595 66.9017C213.387 67.0251 213.202 67.1254 213.186 67.3105C213.171 67.4494 213.263 67.596 213.487 67.7811C213.51 67.7888 213.526 67.7966 213.541 67.8043Z" fill="#21267F"/>
<path d="M211.412 69.3626C211.374 69.3626 211.343 69.3781 211.312 69.4012C211.227 69.4707 211.212 69.5941 211.281 69.6789C211.296 69.7021 211.721 70.2344 212.492 70.3038C213.148 70.3656 213.842 70.0724 214.544 69.4321C214.621 69.3626 214.629 69.2392 214.559 69.1543C214.49 69.0772 214.367 69.0695 214.282 69.1389C213.657 69.7021 213.063 69.9567 212.523 69.9104C211.921 69.8564 211.59 69.4398 211.59 69.4321C211.543 69.3858 211.474 69.3626 211.412 69.3626Z" fill="#21267F"/>
<path opacity="0.5" d="M215.585 68.8766C215.585 69.3318 216.125 69.7021 216.789 69.7021C217.452 69.7021 217.992 69.3318 217.992 68.8766C217.992 68.4215 217.452 68.0512 216.789 68.0512C216.125 68.0512 215.585 68.4215 215.585 68.8766Z" fill="#E5C9C3"/>
<path opacity="0.5" d="M209.345 67.4185C209.345 67.7811 209.777 68.082 210.309 68.082C210.841 68.082 211.273 67.7889 211.273 67.4185C211.273 67.0482 210.841 66.7551 210.309 66.7551C209.777 66.7551 209.345 67.0482 209.345 67.4185Z" fill="#E5C9C3"/>
<path d="M120.281 7.98469V30.3804H121.091V7.97697C120.828 7.97697 120.558 7.98469 120.281 7.98469Z" fill="#EBF1F8"/>
<path d="M125.719 43.125C125.719 45.9023 123.467 48.155 120.69 48.155C117.913 48.155 115.66 45.9023 115.66 43.125C115.66 40.3477 117.913 38.0951 120.69 38.0951C123.467 38.0951 125.719 40.3477 125.719 43.125Z" fill="#EBF1F8"/>
<path d="M125.819 33.0497C125.835 33.0188 125.935 32.8645 125.896 32.8259C124.948 31.877 124.523 29.7709 124.523 29.7709C123.937 29.2232 121.199 29.2078 120.697 29.2078C120.196 29.2078 117.457 29.2232 116.871 29.7709C116.871 29.7709 116.439 31.877 115.498 32.8259C115.459 32.8645 115.498 32.9571 115.575 33.0497C110.453 34.77 106.828 38.9745 106.828 43.9042H134.567C134.559 38.9745 130.941 34.77 125.819 33.0497Z" fill="#EFD9D3"/>
<path d="M121.523 29.5935C122.325 29.9638 123.574 30.5964 123.142 31.6919C122.811 32.5405 121.708 32.9802 120.921 33.2965C123.69 33.7363 126.521 34.338 128.511 36.3747C129.414 37.2927 130 38.7508 129.607 40.0392C129.267 41.1578 128.218 41.505 127.146 41.505C125.734 41.5127 124.354 41.0961 122.942 41.1115C121.191 41.1269 120.111 42.3227 118.568 42.9245C116.917 43.5725 115.143 43.4953 113.408 43.7345C113.014 43.7885 112.613 43.8502 112.212 43.9119H134.551C134.551 38.99 130.926 34.7778 125.811 33.0574C125.827 33.0342 125.919 32.8722 125.889 32.8414C124.94 31.8925 124.516 29.7864 124.516 29.7864C123.929 29.2386 121.191 29.2232 120.689 29.2232C120.666 29.2232 120.612 29.2232 120.581 29.2232C120.905 29.3312 121.222 29.4469 121.523 29.5935Z" fill="#E5C9C3"/>
<path d="M202.495 113.197C202.495 113.197 197.411 113.275 194.31 114.686C191.21 116.098 185.918 114.532 185.918 114.532L185.447 116.43C185.44 116.438 196.771 119.701 202.495 113.197Z" fill="#4A90FF"/>
<path d="M207.439 117.093C207.439 117.093 208.157 112.387 207.308 111.6C206.467 110.821 205.079 111.57 205.079 111.57L202.271 113.452C202.271 113.452 189.821 117.417 185.432 116.43C185.432 116.43 191.965 121.414 194.326 127.925C196.686 134.428 197.342 137.375 197.342 137.375C197.342 137.375 200.235 136.002 204.925 135.339C209.622 134.675 207.439 117.093 207.439 117.093Z" fill="#4681DB"/>
<path d="M202.279 113.452C202.279 113.452 208.388 109.016 207.069 113.39C205.75 117.765 191.865 120.164 191.865 120.164C191.865 120.164 206.059 134.745 204.153 140.754C204.153 140.754 207.378 141.071 211.79 143.254C216.202 145.437 218.409 140.477 217.637 136.025C217.637 136.025 208.751 112.341 207.432 111.037C206.113 109.734 202.279 113.452 202.279 113.452Z" fill="#4A90FF"/>
<path d="M206.637 143.13C206.637 143.13 209.406 142.274 213.942 141.356C215.508 141.04 217.745 140.415 217.475 136.743C217.406 135.809 216.842 133.811 216.009 131.327C215.145 128.75 213.996 125.633 212.808 122.632C210.64 117.147 208.342 112.009 207.439 111.053C207.624 111.323 210.741 116.067 205.372 119.331C200.018 122.578 197.326 121.892 197.149 121.846C197.434 122.177 208.025 134.482 206.637 143.13Z" fill="#81B3FF"/>
<g opacity="0.35">
<path opacity="0.35" d="M205.974 122.038C205.966 122.023 205.958 122.015 205.951 122C208.581 120.241 209.522 117.873 209.538 117.842C209.569 117.765 209.653 117.726 209.73 117.757C209.808 117.788 209.846 117.873 209.815 117.95C209.8 117.981 208.828 120.434 206.128 122.247C206.074 122.17 206.02 122.1 205.974 122.038Z" fill="#EBF1F8"/>
<path opacity="0.35" d="M201.924 123.628C203.127 123.396 204.153 123.01 205.033 122.54C205.063 122.578 205.087 122.625 205.117 122.663C205.148 122.702 205.179 122.748 205.21 122.787C204.3 123.273 203.235 123.682 201.978 123.921C201.901 123.936 201.816 123.882 201.8 123.797C201.785 123.72 201.839 123.643 201.924 123.628Z" fill="#EBF1F8"/>
<path opacity="0.35" d="M208.851 122.332C209.954 121.09 210.371 119.986 210.378 119.963C210.409 119.886 210.494 119.847 210.571 119.871C210.648 119.901 210.695 119.986 210.664 120.063C210.656 120.087 210.224 121.259 209.059 122.555C208.99 122.486 208.92 122.416 208.851 122.332Z" fill="#EBF1F8"/>
<path opacity="0.35" d="M202.703 125.595C202.749 125.579 202.78 125.579 202.819 125.572C205.334 125.14 207.069 124.052 208.249 122.956C208.311 123.034 208.381 123.103 208.458 123.172C207.247 124.307 205.457 125.425 202.873 125.873C202.834 125.88 202.796 125.888 202.749 125.896C202.665 125.911 202.587 125.857 202.58 125.772C202.564 125.687 202.618 125.61 202.703 125.595Z" fill="#EBF1F8"/>
<path opacity="0.35" d="M203.482 127.562C204.747 127.392 205.804 127.061 206.706 126.644C206.737 126.737 206.776 126.837 206.814 126.93C206.004 127.3 205.071 127.608 203.983 127.794C203.829 127.817 203.675 127.848 203.52 127.863C203.436 127.871 203.358 127.817 203.351 127.732C203.343 127.647 203.405 127.57 203.482 127.562Z" fill="#EBF1F8"/>
<path opacity="0.35" d="M207.478 126.243C210.355 124.592 211.219 122.123 211.235 122.092C211.258 122.015 211.35 121.969 211.428 122C211.505 122.023 211.551 122.108 211.52 122.193C211.512 122.231 210.61 124.831 207.586 126.536C207.547 126.436 207.509 126.343 207.478 126.243Z" fill="#EBF1F8"/>
<path opacity="0.35" d="M205.102 129.715C210.972 128.704 212.353 124.353 212.369 124.307C212.392 124.229 212.345 124.145 212.268 124.121C212.191 124.098 212.106 124.145 212.083 124.222C212.068 124.268 210.617 128.82 204.261 129.529C204.176 129.537 204.122 129.614 204.13 129.699C204.138 129.784 204.215 129.838 204.3 129.83C204.578 129.799 204.848 129.761 205.102 129.715Z" fill="#EBF1F8"/>
<path opacity="0.35" d="M205.04 131.497C206.46 131.373 207.617 131.057 208.589 130.64C208.635 130.725 208.681 130.818 208.735 130.91C208.01 131.219 207.185 131.481 206.213 131.651C205.85 131.713 205.464 131.767 205.063 131.798C204.978 131.805 204.909 131.744 204.901 131.659C204.901 131.574 204.971 131.504 205.04 131.497Z" fill="#EBF1F8"/>
<path opacity="0.35" d="M209.368 130.27C212.214 128.735 212.924 126.374 212.939 126.343C212.962 126.266 213.047 126.22 213.124 126.235C213.201 126.258 213.255 126.343 213.232 126.42C213.225 126.451 212.484 128.935 209.522 130.532C209.46 130.447 209.414 130.363 209.368 130.27Z" fill="#EBF1F8"/>
<path opacity="0.35" d="M211.906 131.211C213.402 129.892 213.78 128.496 213.788 128.473C213.811 128.388 213.888 128.341 213.973 128.365C214.05 128.388 214.104 128.465 214.081 128.55C214.073 128.573 213.665 130.069 212.083 131.458C212.029 131.373 211.967 131.288 211.906 131.211Z" fill="#EBF1F8"/>
<path opacity="0.35" d="M205.819 133.464C208.303 133.294 210.031 132.577 211.227 131.744C211.273 131.798 211.319 131.859 211.358 131.913C211.373 131.936 211.389 131.96 211.404 131.983C210.424 132.669 209.098 133.279 207.316 133.587C206.853 133.664 206.359 133.726 205.827 133.765C205.742 133.772 205.673 133.711 205.665 133.626C205.673 133.541 205.742 133.464 205.819 133.464Z" fill="#EBF1F8"/>
<path opacity="0.35" d="M213.402 132.7C214.382 131.62 214.629 130.617 214.637 130.602C214.652 130.517 214.737 130.471 214.814 130.486C214.899 130.501 214.945 130.586 214.93 130.663C214.922 130.687 214.644 131.805 213.541 132.986C213.495 132.893 213.449 132.793 213.402 132.7Z" fill="#EBF1F8"/>
<path opacity="0.35" d="M212.754 133.325C212.801 133.418 212.847 133.502 212.901 133.595C212.214 134.166 211.32 134.714 210.132 135.107C210.132 135.099 210.124 135.092 210.124 135.084C210.108 135.045 210.093 135.007 210.085 134.968C210.108 135.076 210.085 134.961 210.078 134.945C210.062 134.899 210.054 134.86 210.039 134.814C211.212 134.428 212.091 133.888 212.754 133.325Z" fill="#EBF1F8"/>
<path opacity="0.35" d="M206.598 135.431C207.586 135.385 208.45 135.246 209.213 135.061C209.244 135.161 209.267 135.261 209.298 135.354C209.021 135.423 208.735 135.485 208.434 135.539C207.879 135.632 207.27 135.701 206.614 135.732C206.529 135.74 206.46 135.67 206.46 135.585C206.452 135.501 206.521 135.431 206.598 135.431Z" fill="#EBF1F8"/>
<path opacity="0.35" d="M212.523 136.179C215.038 134.806 215.485 132.754 215.493 132.723C215.508 132.638 215.585 132.592 215.67 132.608C215.755 132.623 215.809 132.7 215.786 132.785C215.778 132.816 215.3 135.015 212.631 136.465C212.6 136.365 212.554 136.272 212.523 136.179Z" fill="#EBF1F8"/>
<path opacity="0.35" d="M207.378 137.398C209.214 137.344 210.633 137.013 211.744 136.55C211.782 136.642 211.821 136.735 211.859 136.828C211.196 137.105 210.44 137.337 209.545 137.491C208.897 137.607 208.18 137.676 207.393 137.699C207.308 137.699 207.239 137.638 207.239 137.553C207.231 137.468 207.301 137.398 207.378 137.398Z" fill="#EBF1F8"/>
<path opacity="0.35" d="M211.211 139.018C215.724 137.977 216.341 134.883 216.349 134.845C216.364 134.76 216.441 134.706 216.526 134.721C216.611 134.737 216.665 134.814 216.65 134.899C216.642 134.937 216.009 138.224 211.304 139.312C211.265 139.219 211.235 139.119 211.211 139.018Z" fill="#EBF1F8"/>
<path opacity="0.35" d="M208.157 139.366C208.974 139.358 209.699 139.288 210.363 139.188C210.394 139.288 210.417 139.389 210.448 139.481C209.761 139.589 209.005 139.659 208.157 139.666C208.072 139.666 208.002 139.597 208.002 139.52C208.01 139.435 208.08 139.366 208.157 139.366Z" fill="#EBF1F8"/>
</g>
<path opacity="0.19" d="M214.721 131.157L216.002 131.327C215.138 128.75 213.989 125.633 212.801 122.632L212.554 123.057C212.037 123.666 212.731 125.333 212.731 125.333C212.731 125.333 210.687 127.948 206.599 127.308C206.606 127.308 206.444 132.708 214.721 131.157Z" fill="#916640"/>
<path d="M208.666 130.301C208.774 129.715 211.389 129.367 211.389 129.367C211.389 129.367 207.131 129.259 207.301 128.627C207.463 127.986 211.165 127.994 211.165 127.994C211.165 127.994 206.506 127.732 206.306 127.053C206.097 126.374 211.158 126.791 211.158 126.791C211.158 126.791 206.884 125.703 207.008 125.063C207.131 124.422 211.443 125.541 212.384 125.579C212.993 125.603 213.364 125.171 212.878 124.762C212.392 124.353 212.245 123.088 212.677 122.887C213.109 122.679 213.881 124.646 214.629 124.808C215.377 124.978 216.202 125.379 216.388 125.765C217.097 126.505 218.455 124.978 218.455 124.978C218.501 125.263 220.545 127.377 219.003 128.426L216.519 129.514C216.519 129.514 215.693 129.807 214.482 130.015C213.263 130.201 208.558 130.887 208.666 130.301Z" fill="#EFD9D3"/>
<path d="M227.573 80.8652C227.573 80.8652 246.024 93.8876 246.966 108.059C247.714 119.215 217.784 129.637 217.784 129.637L217.043 125.633L231.862 109.232C231.87 109.224 223.809 83.5422 227.573 80.8652Z" fill="#81B3FF"/>
<g opacity="0.5">
<path opacity="0.5" d="M212.754 122.91C212.901 122.926 213.048 123.157 213.102 123.257C213.102 123.257 212.986 123.45 212.893 123.358C212.793 123.265 212.6 122.895 212.754 122.91Z" fill="#EBF1F8"/>
<path opacity="0.5" d="M207.07 125.063C207.139 124.924 207.633 124.962 207.671 125.001C207.671 125.001 207.563 125.387 207.517 125.448C207.463 125.502 207 125.201 207.07 125.063Z" fill="#EBF1F8"/>
<path opacity="0.5" d="M206.445 127.038C206.476 126.883 206.954 126.791 207.008 126.814C207.008 126.814 207.008 127.215 206.985 127.284C206.946 127.354 206.414 127.192 206.445 127.038Z" fill="#EBF1F8"/>
<path opacity="0.5" d="M207.478 128.658C207.501 128.503 207.98 128.388 208.026 128.411C208.026 128.411 208.049 128.812 208.018 128.881C207.995 128.951 207.455 128.812 207.478 128.658Z" fill="#EBF1F8"/>
<path opacity="0.5" d="M208.782 130.293C208.789 130.162 209.175 130.031 209.221 130.046C209.221 130.046 209.268 130.378 209.252 130.44C209.237 130.501 208.782 130.424 208.782 130.293Z" fill="#EBF1F8"/>
</g>
<path d="M80.346 55.9623C79.4434 58.7627 77.3684 60.0588 75.5325 60.8997C75.6019 60.5294 75.6714 60.159 75.7408 59.7887C75.4168 59.6884 75.0851 59.5882 74.7534 59.4879C74.7534 59.4802 77.8698 58.0375 78.4561 56.6103C78.6798 56.7029 78.9035 56.7877 79.1272 56.8803C79.1272 56.8803 79.7906 56.6412 80.346 55.9623Z" fill="#797DFF"/>
<path d="M63.9075 82.4236C63.8998 82.4236 63.9229 84.3986 64.2778 84.7072C64.1003 84.738 63.9152 84.7689 63.7378 84.7997C63.6298 84.8923 63.5295 84.9849 63.4215 85.0775C63.4215 85.0775 62.897 83.8354 62.8584 82.7476C63.0281 82.7476 63.1978 82.7553 63.3598 82.7553C63.5372 82.6473 63.7224 82.5393 63.9075 82.4236Z" fill="#B8BDF4"/>
<path d="M74.9615 68.8226C74.9615 68.8226 76.1031 68.1746 77.4994 68.0974C77.4608 68.2826 77.4222 68.4677 77.3837 68.6529C77.5225 68.7763 77.6614 68.9075 77.8002 69.0309C77.8002 69.0232 75.7946 69.6944 75.2623 70.111C75.0849 69.949 74.9152 69.7947 74.7378 69.6327C74.8072 69.3627 74.8844 69.0926 74.9615 68.8226Z" fill="#797DFF"/>
<path d="M88.3608 62.6895C88.3608 62.6895 87.25 62.566 86.1084 62.8823C86.201 62.998 86.2935 63.1138 86.3938 63.2295C86.309 63.3143 86.2241 63.4069 86.1393 63.4918C86.1393 63.4918 87.0495 63.1755 87.8132 63.2449C87.7977 63.1601 87.7823 63.0829 87.7669 62.998C87.9674 62.8978 88.168 62.7898 88.3608 62.6895Z" fill="#B8BDF4"/>
<path d="M57.2583 67.4571C57.2583 67.4417 61.3466 66.4465 61.8789 66.2691C61.6475 66.4697 61.4161 66.6702 61.1924 66.8708C61.4006 66.9711 61.6089 67.0714 61.8172 67.1717C61.8172 67.1485 57.6517 68.4292 57.2197 68.6529C57.32 68.4446 57.428 68.2286 57.5283 68.0203C57.4357 67.8352 57.3432 67.65 57.2583 67.4571Z" fill="#B8BDF4"/>
<path d="M184.938 44.1202C182.632 45.9486 180.186 45.8638 178.196 45.5475C178.459 45.2774 178.721 45.0074 178.991 44.7374C178.775 44.4751 178.559 44.2051 178.335 43.9428C178.335 43.9351 181.729 44.4674 183.01 43.6034C183.149 43.8039 183.28 44.0045 183.411 44.2051C183.419 44.2051 184.097 44.3748 184.938 44.1202Z" fill="#797DFF"/>
<path d="M156.559 56.9652C156.551 56.9652 155.471 58.6161 155.595 59.0713C155.425 58.9941 155.263 58.917 155.093 58.8398C154.954 58.8553 154.816 58.8784 154.677 58.8938C154.677 58.8938 154.931 57.5669 155.502 56.6489C155.641 56.7414 155.78 56.8417 155.911 56.942C156.127 56.9497 156.343 56.9574 156.559 56.9652Z" fill="#B8BDF4"/>
<path d="M173.314 51.8118C173.314 51.8118 174.625 51.9043 175.828 52.6218C175.689 52.753 175.558 52.8841 175.419 53.0153C175.466 53.2004 175.512 53.3778 175.551 53.563C175.551 53.5553 173.514 52.9998 172.843 53.0538C172.789 52.8224 172.727 52.5987 172.673 52.3672C172.889 52.1744 173.098 51.9892 173.314 51.8118Z" fill="#797DFF"/>
<path d="M187.862 54.1647C187.862 54.1647 187.013 53.4473 185.887 53.0693C185.902 53.2158 185.918 53.3701 185.926 53.5167C185.81 53.5399 185.687 53.5707 185.571 53.5939C185.571 53.5939 186.504 53.833 187.106 54.319C187.137 54.2419 187.168 54.1647 187.206 54.0876C187.422 54.1185 187.638 54.1416 187.862 54.1647Z" fill="#B8BDF4"/>
<path d="M159.351 40.8261C159.359 40.8106 163.309 42.261 163.856 42.4076C163.555 42.4462 163.247 42.4847 162.946 42.5233C163.062 42.7239 163.177 42.9245 163.293 43.1173C163.301 43.1019 159.135 41.8444 158.649 41.7904C158.85 41.6747 159.051 41.5512 159.259 41.4355C159.29 41.2427 159.321 41.0344 159.351 40.8261Z" fill="#B8BDF4"/>
<path d="M155.934 73.0503C155.155 76.6144 152.81 77.8411 150.735 78.5122C150.781 78.0339 150.828 77.5556 150.882 77.0773C150.488 76.8613 150.087 76.653 149.686 76.4447C149.678 76.437 153.227 75.2644 153.767 73.4746C154.037 73.6443 154.314 73.8217 154.584 73.9992C154.592 73.9992 155.348 73.8294 155.934 73.0503Z" fill="#797DFF"/>
<path d="M138.516 103.67C138.516 103.67 138.593 106.239 138.994 106.756C138.794 106.74 138.585 106.717 138.385 106.702C138.269 106.787 138.154 106.879 138.038 106.964C138.038 106.964 137.413 105.182 137.328 103.77C137.521 103.824 137.714 103.886 137.899 103.94C138.115 103.847 138.316 103.755 138.516 103.67Z" fill="#B8BDF4"/>
<path d="M150.611 88.9193C150.611 88.9193 151.892 88.3562 153.496 88.6185C153.458 88.8576 153.419 89.0968 153.381 89.3359C153.543 89.5442 153.705 89.7448 153.867 89.9531C153.867 89.9454 151.599 90.308 151.013 90.7246C150.804 90.47 150.596 90.2077 150.388 89.9531C150.465 89.6059 150.542 89.2588 150.611 88.9193Z" fill="#B8BDF4"/>
<path d="M165.715 84.0359C165.715 84.0359 164.442 83.6039 163.146 83.7505C163.262 83.9279 163.37 84.1131 163.486 84.2905C163.393 84.3908 163.301 84.4911 163.208 84.5837C163.208 84.5837 164.234 84.3754 165.114 84.6454C165.09 84.5297 165.075 84.414 165.052 84.2982C165.276 84.2211 165.499 84.1285 165.715 84.0359Z" fill="#B8BDF4"/>
<path d="M129.591 82.4467C129.599 82.4236 134.42 82.2153 135.037 82.115C134.783 82.3156 134.528 82.5162 134.274 82.7167C134.536 82.9019 134.79 83.087 135.053 83.2722C135.053 83.249 130.185 83.8045 129.676 83.9665C129.776 83.7274 129.877 83.4805 129.977 83.2413C129.854 82.9713 129.722 82.709 129.591 82.4467Z" fill="#B8BDF4"/>
<path d="M125.534 65.8833C123.019 64.919 122.579 63.5921 122.572 62.4735C122.927 62.5815 123.274 62.6895 123.629 62.7975C123.883 62.6509 124.145 62.4966 124.4 62.35C124.4 62.35 124.446 64.2324 125.68 64.7956C125.488 64.8959 125.295 64.9884 125.11 65.0887C125.11 65.0964 125.071 65.4822 125.534 65.8833Z" fill="#797DFF"/>
<path d="M106.396 51.7809C106.396 51.7809 104.321 51.3798 103.773 51.5341C103.858 51.4183 103.935 51.3026 104.02 51.1869C103.989 51.102 103.958 51.0249 103.927 50.94C103.927 50.94 105.563 50.8783 106.72 51.0943C106.612 51.1946 106.496 51.2949 106.388 51.3875C106.396 51.5186 106.396 51.6498 106.396 51.7809Z" fill="#B8BDF4"/>
<path d="M114.588 60.7454C114.588 60.7454 114.719 61.4937 114.156 62.3037C113.978 62.2497 113.801 62.2034 113.623 62.1494C113.431 62.2111 113.23 62.2729 113.037 62.3269C113.037 62.3269 113.261 61.0694 113.083 60.6991C113.33 60.6219 113.585 60.5525 113.832 60.4753C114.094 60.5679 114.341 60.6528 114.588 60.7454Z" fill="#B8BDF4"/>
<path d="M115.475 69.2546C115.475 69.2546 115.984 68.6375 116.077 67.9432C115.922 67.9817 115.768 68.0203 115.614 68.0589C115.552 67.9972 115.49 67.9432 115.429 67.8814C115.429 67.8814 115.429 68.4369 115.089 68.8766C115.182 68.8766 115.274 68.8766 115.359 68.8766C115.398 69.0078 115.436 69.1312 115.475 69.2546Z" fill="#B8BDF4"/>
<path d="M126.082 51.8272C126.074 51.8272 124.493 54.049 124.385 54.3653C124.315 54.2033 124.253 54.0413 124.184 53.8716C123.953 53.9487 123.721 54.0259 123.49 54.103C123.482 54.103 124.801 51.7423 124.886 51.48C125.033 51.588 125.179 51.6883 125.326 51.7963C125.58 51.8118 125.827 51.8195 126.082 51.8272Z" fill="#B8BDF4"/>
</svg>
