<svg width="54" height="54" viewBox="0 0 54 54" fill="none" xmlns="http://www.w3.org/2000/svg">
<path d="M24.6141 27L19.8419 22.2277C19.5345 21.9095 19.3644 21.4832 19.3682 21.0408C19.3721 20.5983 19.5495 20.1751 19.8624 19.8622C20.1753 19.5493 20.5985 19.3718 21.041 19.368C21.4835 19.3641 21.9097 19.5342 22.228 19.8416L27.0002 24.6139L31.7725 19.8416C31.9282 19.6804 32.1144 19.5519 32.3202 19.4634C32.5261 19.375 32.7476 19.3285 32.9716 19.3265C33.1957 19.3246 33.4179 19.3673 33.6253 19.4521C33.8327 19.537 34.0211 19.6623 34.1795 19.8207C34.338 19.9791 34.4633 20.1676 34.5481 20.3749C34.633 20.5823 34.6757 20.8045 34.6737 21.0286C34.6718 21.2527 34.6252 21.4741 34.5368 21.68C34.4483 21.8859 34.3198 22.0721 34.1586 22.2277L29.3864 27L34.1586 31.7722C34.3198 31.9279 34.4483 32.1141 34.5368 32.32C34.6252 32.5259 34.6718 32.7473 34.6737 32.9714C34.6757 33.1954 34.633 33.4177 34.5481 33.625C34.4633 33.8324 34.338 34.0208 34.1795 34.1793C34.0211 34.3377 33.8327 34.463 33.6253 34.5479C33.4179 34.6327 33.1957 34.6754 32.9716 34.6735C32.7476 34.6715 32.5261 34.625 32.3202 34.5365C32.1144 34.4481 31.9282 34.3195 31.7725 34.1584L27.0002 29.3861L22.228 34.1584C21.9097 34.4658 21.4835 34.6359 21.041 34.632C20.5985 34.6282 20.1753 34.4507 19.8624 34.1378C19.5495 33.8249 19.3721 33.4017 19.3682 32.9592C19.3644 32.5168 19.5345 32.0905 19.8419 31.7722L24.6141 27Z" fill="#FF6464"/>
<path d="M27 47.25C29.6593 47.25 32.2925 46.7262 34.7493 45.7086C37.2062 44.6909 39.4385 43.1993 41.3189 41.3189C43.1993 39.4385 44.6909 37.2062 45.7086 34.7493C46.7262 32.2925 47.25 29.6593 47.25 27C47.25 24.3407 46.7262 21.7075 45.7086 19.2507C44.6909 16.7938 43.1993 14.5615 41.3189 12.6811C39.4385 10.8007 37.2062 9.3091 34.7493 8.29144C32.2925 7.27378 29.6593 6.75 27 6.75C21.6294 6.75 16.4787 8.88348 12.6811 12.6811C8.88348 16.4787 6.75 21.6294 6.75 27C6.75 32.3706 8.88348 37.5213 12.6811 41.3189C16.4787 45.1165 21.6294 47.25 27 47.25ZM27 50.625C20.7343 50.625 14.7251 48.1359 10.2946 43.7054C5.86406 39.2748 3.375 33.2657 3.375 27C3.375 20.7343 5.86406 14.7251 10.2946 10.2946C14.7251 5.86406 20.7343 3.375 27 3.375C33.2657 3.375 39.2748 5.86406 43.7054 10.2946C48.1359 14.7251 50.625 20.7343 50.625 27C50.625 33.2657 48.1359 39.2748 43.7054 43.7054C39.2748 48.1359 33.2657 50.625 27 50.625Z" fill="#FF6464"/>
</svg>
